<?xml version="1.0" encoding="UTF-8" standalone="no"?>
<svg
   xmlns:dc="http://purl.org/dc/elements/1.1/"
   xmlns:cc="http://creativecommons.org/ns#"
   xmlns:rdf="http://www.w3.org/1999/02/22-rdf-syntax-ns#"
   xmlns:svg="http://www.w3.org/2000/svg"
   xmlns="http://www.w3.org/2000/svg"
   xmlns:sodipodi="http://sodipodi.sourceforge.net/DTD/sodipodi-0.dtd"
   xmlns:inkscape="http://www.inkscape.org/namespaces/inkscape"
   version="1.1"
   x="0"
   y="0"
   width="2871.2002"
   height="559.58215"
   viewBox="0 0 2871.2001 559.58214"
   id="svg2"
   inkscape:version="0.48.2 r9819"
   sodipodi:docname="hr1.svg">
  <metadata
     id="metadata13">
    <rdf:RDF>
      <cc:Work
         rdf:about="">
        <dc:format>image/svg+xml</dc:format>
        <dc:type
           rdf:resource="http://purl.org/dc/dcmitype/StillImage" />
      </cc:Work>
    </rdf:RDF>
  </metadata>
  <defs
     id="defs11">
    <filter
       id="filter3966"
       inkscape:label="Oil painting"
       inkscape:menu="Image effects"
       inkscape:menu-tooltip="Simulate oil painting style"
       color-interpolation-filters="sRGB">
      <feMorphology
         id="feMorphology3968"
         radius="2"
         in="SourceGraphic"
         result="result0" />
      <feTurbulence
         id="feTurbulence3970"
         numOctaves="1"
         baseFrequency="0.078"
         result="result91" />
      <feDisplacementMap
         id="feDisplacementMap3972"
         in2="result91"
         in="result0"
         scale="6.3"
         xChannelSelector="R"
         yChannelSelector="G" />
    </filter>
    <filter
       id="filter3974"
       inkscape:label="Oil painting"
       inkscape:menu="Image effects"
       inkscape:menu-tooltip="Simulate oil painting style"
       color-interpolation-filters="sRGB">
      <feMorphology
         id="feMorphology3976"
         radius="2"
         in="SourceGraphic"
         result="result0" />
      <feTurbulence
         id="feTurbulence3978"
         numOctaves="1"
         baseFrequency="0.078"
         result="result91" />
      <feDisplacementMap
         id="feDisplacementMap3980"
         in2="result91"
         in="result0"
         scale="6.3"
         xChannelSelector="R"
         yChannelSelector="G" />
    </filter>
  </defs>
  <sodipodi:namedview
     pagecolor="#ffffff"
     bordercolor="#666666"
     borderopacity="1"
     objecttolerance="10"
     gridtolerance="10"
     guidetolerance="10"
     inkscape:pageopacity="0"
     inkscape:pageshadow="2"
     inkscape:window-width="1924"
     inkscape:window-height="1155"
     id="namedview9"
     showgrid="false"
     inkscape:zoom="0.33590991"
     inkscape:cx="1205.594"
     inkscape:cy="33.914653"
     inkscape:window-x="0"
     inkscape:window-y="0"
     inkscape:window-maximized="0"
     inkscape:current-layer="Layer_1"
     showborder="true"
     fit-margin-top="0"
     fit-margin-left="0"
     fit-margin-right="0"
     fit-margin-bottom="0" />
  <g
     id="Layer_1"
     transform="translate(1304.5342,256.52926)">
    <path
       d="m 69.669087,2.132121 c -24.02,9.45 -47.83,14.49 -71.4899996,16.41 -70.5700004,-8.56 -144.2399974,-21.59 -172.8499974,-96.59 -13.38,-35.120001 -2.69,-78.960001 37.08,-87.600001 23.46,-5.07 48.009997,12.29 61.649997,29.54 12.36,15.6 5.03,35.15 -11.69,44.200001 -3.38,1.07 -6.76,2.14 -10.13,3.22 -13.229997,4.37 -16.999997,-1.96 -11.279997,-18.990001 6.77,8.600001 17.279997,-5.37 14.159997,-12.75 -10.279997,-24.43 -38.829997,-23.87 -47.809997,3.18 -8.71,26.210001 5.67,48.700001 32.46,52.990001 25.489997,4.1 55.889997,-16.62 60.239997,-42.070001 6.35,-37.11 -22.1,-64.28 -53.839997,-77.79 -26.62,-11.35 -63.58,-3.2 -79.89,21.82 -18.53,28.45 -17.88,61.99 -8.9,93.730001 6.42,22.79 19.6,41.95 36.78,57.53 -27.63,-10.66 -54.66,-29.63 -73.87,-45.78 -33.79,-28.41 -52.92,-66.620001 -78.52,-101.460001 -32.76,-44.65 -102.6,-73.32 -145.73,-25.68 -31.83,35.15 13.85,104.560001 58.28,85.810001 35.84,-15.130001 29.13,-88.880001 -10.56,-66.620001 -8.07,4.54 -7.48,24.09 4.12,20.81 19.59,10.17 14.55,17.48 -15.06,21.91 -18.95,-5.76 -38.88,-27.81 -18.93,-49.84 18.3,-20.24 50.96,-13.97 72.78,-5.14 36.84,14.92 55.22,58.51 76.58,88.900001 9.78,13.93 22.7,29.03 37.68,43.36 -23.45,-6.97 -46.81,-15.74 -69.56,-22.11 -46.5,-13 -95.01,-24.88 -143.11,-29.63 -78.71,-7.770001 -163,-7.420001 -237.91,21 -76.71,29.12 -127.2,88.11 -193.02,133.87 -66.34,46.109999 -154.46999,82.479999 -226.45999,27.56 -53.94,-41.16 -50.15,-108.03 -13.25,-158.6 28.71,-39.350001 84.54,-71.990001 133.00999,-50.990001 56.06,24.270001 68.81,111.480001 2.98,129.180001 -22.09999,5.94 -47.38999,1.95 -64.76999,-13.25 -17.42,-15.25 -12.45,-41.15 6.48,-53.16 12.69,-8.03 27.37,-5.68 37.2,6.23 15.26,18.44 -16.52,38.24 -21.43,14.14 -2.98,-14.61 -22.4,-9.76 -19.6,4.01 9.02,44.35 59.46999,34.92 64.64999,-6.35 2.25,-17.91 -13.28999,-39.79 -30.63999,-43.93 -25.47,-6.07 -48.7,7.27 -61.94,28.79 -23.62,38.38 13.33,77.56 48.37,86.84 36.42,9.65 85.15999,-7.4 101.03999,-43.15 19.25,-43.32 -6.4,-98.260001 -42.92,-124.310001 -36.47999,-26.02 -84.09999,-14.67 -119.45999,6.97 -93.03,56.930001 -111.87,184.340001 -16.24,247.81 56.01,37.19 125.21999,20.41 181.21999,-6.93 70.62,-34.509999 119.95,-95.569999 185.56,-136.449999 43,-26.79 91.33,-40.33 140.98,-46.15 -6.82,2.48 -13.6,5.1 -20.3,7.93 -65.12,27.56 -108.5,80.12 -116.78,150.68 -6.48,55.119999 9.98,162.969999 -79.68,147.409999 -37.17,-6.45 -43.95,-49.75 -27.92,-77.99 16.71,-29.51 46.69,-23.52 53.2,10.74 2.58,13.59 -29.81,10.18 -23.54,1.35 7.54,-10.61 -6.22,-25.16 -15.12,-13.36 -16.06,21.21 0.5,41.05 23.68,43.61 37.96,4.18 36.36,-36.56 25.93,-60.29 -15.71,-35.78 -55.09,-29.96 -75,-1.52 -22.32,31.89 -24.18,73.02 2.79,102.71 22.12,24.36 61.23,22.21 88.06,8.65 45.2,-22.89 44.3,-77.95 44.98,-121.31 0.54,-34.239999 3.17,-66.379999 19.19,-97.399999 18.04,-34.88 52.98,-56.7 87.45,-72.67 34.24,-15.9 75.68,-26.96 113.56,-27.25 20.47,-0.16 40.4,4.57 60.44,8.65 -110.65,15.14 -234.62,93.13 -196.86,218.709999 31.76,105.63 185.63,126.14 242.63,32.8 29.79,-48.75 11.85,-104.069999 -39.51,-127.499999 -42.89,-19.59 -110.18,7.14 -104.88,61.109999 3.92,40.06 44.56,80.96 75.87,37.3 7.21,-10.05 -4.83,-24 -13.92,-13.12 -27.93,33.42 -55.02,-29.1 -31.8,-53.589999 22.42,-23.6 59.83,-17.47 83.88,-0.98 60.06,41.089999 4.99,115.429999 -46.07,130.739999 -110.89,33.3 -204.22,-104.18 -123.99,-191.189999 79.61,-86.37 217.94,-84.47 320.67,-54.63 87.46,25.41 174.96,66.09 264.269997,62.58 6.12,0 12.1300004,-0.24 17.9500004,-0.78 0.8,-0.08 1.52,-0.43 2.21,-0.8 22.8499996,-2.68 45.8199996,-8.48 68.9499996,-18.48 7.58,-3.28 6.9,-20.41 -2.78,-16.6"
       id="path5"
       style="fill:#1a1a1a;filter:url(#filter3974)"
       inkscape:connector-curvature="0" />
    <path
       d="m 1349.3391,-138.04788 c -38.2,-21.42 -83.82,-21.36 -118.13,6.88 -34.5,28.4 -52.37,84.610001 -29.97,124.650001 41.45,74.04 194.03,26.66 141.79,-58.27 -22.73,-36.950001 -95.13,-27.59 -88.79,22.84 5.33,42.42000004 55.81,48 64.66,4.51 2.92,-14.4 -16.74,-16.31 -19.62,-2.17 -8.05,11.74 -15.49,12.83 -22.32,3.3 -16.98,-19.8 19.3,-30.74 31.67,-27.17 23.54,6.8 29.22,32.39 17.37,51.1 -12.86,20.31 -43.2,22.01 -64.19,18.84 -72.24,-10.89 -56.46,-97.57 -6.76,-127.980001 46.07,-28.21 104.38,9.64 133.94,44.640001 40.53,47.97 43.87,111.57 -2.01,156.74 -67.68,66.619999 -165.62,23.869999 -231.86,-20.47 -64.27,-42.98 -112.7,-101.31 -185.52001,-131.56 -74.32,-30.880001 -157.76,-31.290001 -236.68,-25.19 -47.81,3.71 -95.38,15.06 -141.67,27.34 -27.71,7.36 -56.27,18.54 -84.85,26.6 13.03,-12.21 24.62,-24.92 34.24,-36.78 25.6,-31.560001 40.16,-71.030001 75.92,-93.430001 20.39,-12.76 46.9,-14.94 68.77,-5.73 25.73,10.84 19.55,41.78 -0.89,54.4 -21.08,12.99 -44.48,-25.43 -22.58,-18.97 10.71,3.19 13.99,-16.4 5.4,-20.95 -40.79,-21.58 -46.99,51.91 -10.96,67.130001 19.4,8.18 50.26,-10.180001 59.93,-26.430001 13.41,-22.58 12.39,-44.43 -5.52,-64.2 -42.56,-46.99 -111.33,-7.95 -142.12,30.72 -27.19,34.14 -45.5,71.140001 -78.35,101.230001 -19.28,17.68 -50.47,38.29 -80.56,48.07 16.49,-14.28 30.29,-31.62 39.88,-52.13 28.03,-59.860001 -6.05,-148.610001 -82.89,-124.220001 -30.15,9.57 -56.34,36.49 -57.61,68.83 -1.27,32.090001 30.89,51.640001 59.35,51.620001 22.89,0 44.34,-24.37 36.66,-47.440001 -8.8,-26.48 -37.17,-39.06 -49.46,-8.59 -4.12,10.19 6.91,20.23 14.73,10.6 10.07,16.600001 8,23.850001 -6.23,21.720001 -9.12,0 -17.85,-4.57 -24.99,-9.73 -35.49,-25.620001 18.69,-60.620001 37.9,-66.770001 50.12,-16.04 66.59,39.1 60.83,76.030001 -12.77,82.09 -103.67,98.09 -171.38,106.6 -25.02,-1.54 -50.07,-6.52 -75,-16.42 -8.15,-3.22 -12.4,13.9 -4.31,17.38 22.78,9.75 45.49,15.49 68.14,18.17 0.55,0.25 1.07,0.56 1.77,0.64 5.37,0.49 10.74,0.74 16.16,0.84 90.44,4.53 179.86,-36.02 267.52,-62.62 106.61,-32.32 236.58,-28.03 320.81,54.92 89.81,88.459999 -19.13,222.149999 -127.24,189.689999 -51.06,-15.31 -92.83,-81.48 -48.13,-125.309999 21.05,-20.61 53.36,-23.34 78.81,-10.74 43.75,21.639999 8.37,96.049999 -22.12,59.019999 -7.61,-9.26 -19.12,7.4 -13.28,15.43 31.76,43.73 72.42,1.8 76.34,-38.26 5.32,-54.299999 -62.16,-79.529999 -104.8,-60.059999 -53.76,24.53 -66.08,77.659999 -39.66,127.789999 24.64,46.72 79.09,64.61 128.74,58.71 52.39,-6.23 95.96,-43.86 113.8,-92.54 20.69,-56.439999 1.69,-113.039999 -41.72,-152.009999 -41.57,-37.34 -99.92,-56.33 -155.02,-65.58 22.92,-4.2 45.72,-9.4 69.35,-9.22 35.12,0.29 72.58,13.9 104.47,27.4 32.25,13.65 61.46,34.51 81.68,63.32 22.23,31.7 24.48,70 25.16,107.229999 0.76,41.93 -0.94,92.71 39.74001,117.73 29.7,18.24 66.69,17.48 93.1,-6.15 64.23,-57.4 -37.8,-177.889999 -71.9,-100.23 -10.97,24.95 -12.84,59.27 23.18,59.7 24.44,0.3 42.47,-22.89 26.5,-44.1 -8.71,-11.56 -22.67,4.18 -15.43,14.32 5.61,7.85 -12.94,7.5 -17.8,6.05 -18.23,-5.45 10.59,-37.91 10.96,-38.16 11.48,-8.11 26.13,6.79 32.23,13.92 25.19,29.36 13.98,73.89 -23.37,83.71 -86.82001,22.82 -75.87,-99.02 -79.78,-148.219999 -5.69001,-71.83 -53.81001,-121.07 -116.58001,-150.19 -5.15,-2.39 -10.42,-4.55 -15.73,-6.61 47.48,6.72 93.57,20.71 136.38001,45.43 35.36,20.43 63.56,51.25 95.09,76.8 30.59,24.79 63.67,46.54 99.06,63.849999 62.55,30.55 131.32,34.1 188.25,-9.38 90.86,-69.369999 42.96,-194.549999 -42.5,-242.46"
       id="path7"
       style="fill:#1a1a1a;filter:url(#filter3966)"
       inkscape:connector-curvature="0" />
  </g>
</svg>
