<svg xmlns="http://www.w3.org/2000/svg" width="700" height="150" viewBox="0, 0, 700, 150"><g fill="#1A1A1A"><path d="M334.78 69.74c-5.962 2.346-11.872 3.597-17.744 4.074-17.516-2.125-35.802-5.36-42.903-23.975-3.32-8.718-.668-19.6 9.203-21.744 5.823-1.258 11.917 3.05 15.302 7.332 3.068 3.872 1.25 8.725-2.9 10.97-.84.267-1.68.532-2.515.8-3.284 1.085-4.22-.486-2.8-4.713 1.68 2.134 4.29-1.333 3.514-3.165-2.55-6.064-9.638-5.925-11.867.79-2.16 6.505 1.408 12.087 8.057 13.152C296.454 54.28 304 49.137 305.08 42.82c1.576-9.21-5.486-15.955-13.364-19.308-6.607-2.818-15.78-.795-19.83 5.415-4.6 7.062-4.438 15.387-2.21 23.265 1.595 5.657 4.866 10.412 9.13 14.28-6.857-2.646-13.567-7.355-18.335-11.363-8.386-7.053-13.134-16.537-19.488-25.185-8.13-11.082-25.466-18.198-36.172-6.374-7.9 8.726 3.438 25.954 14.466 21.3 8.896-3.755 7.23-22.06-2.62-16.536-2.004 1.127-1.858 5.98 1.022 5.166 4.862 2.524 3.61 4.338-3.738 5.438-4.704-1.43-9.65-6.903-4.7-12.37 4.543-5.025 12.65-3.468 18.066-1.277 9.144 3.705 13.706 14.524 19.007 22.067 2.428 3.458 5.635 7.206 9.353 10.762-5.82-1.73-11.62-3.907-17.265-5.488-11.54-3.227-23.582-6.176-35.52-7.355-19.537-1.928-40.46-1.842-59.052 5.213-19.04 7.227-31.572 21.87-47.91 33.227-16.465 11.445-38.34 20.473-56.21 6.84-13.387-10.215-12.446-26.813-3.287-39.365 7.127-9.767 20.984-17.87 33.015-12.656 13.914 6.024 17.08 27.67.74 32.063-5.486 1.474-11.763.483-16.077-3.29-4.324-3.785-3.09-10.213 1.608-13.194 3.15-1.993 6.794-1.41 9.234 1.546 3.787 4.577-4.1 9.492-5.32 3.51-.74-3.626-5.56-2.423-4.864.995 2.24 11.008 14.76 8.668 16.046-1.576.56-4.444-3.298-9.875-7.605-10.903-6.322-1.506-12.087 1.805-15.374 7.146-5.862 9.526 3.31 19.25 12.006 21.555 9.04 2.395 21.137-1.837 25.078-10.71 4.778-10.753-1.588-24.39-10.653-30.855-9.055-6.46-20.874-3.642-29.65 1.73-23.092 14.13-27.768 45.754-4.032 61.508 13.902 9.232 31.08 5.067 44.98-1.72 17.53-8.564 29.773-23.72 46.058-33.867 10.674-6.65 22.67-10.01 34.994-11.455a106.118 106.118 0 0 0-5.04 1.97c-16.162 6.84-26.93 19.885-28.985 37.4-1.61 13.68 2.476 40.45-19.778 36.587-9.226-1.6-10.91-12.348-6.93-19.358 4.148-7.324 11.59-5.838 13.205 2.666.64 3.373-7.4 2.527-5.843.335 1.87-2.633-1.544-6.245-3.753-3.316-3.985 5.265.125 10.19 5.878 10.824 9.422 1.038 9.025-9.074 6.437-14.964-3.9-8.88-13.674-7.436-18.616-.377-5.54 7.915-6.003 18.124.69 25.493 5.492 6.047 15.2 5.513 21.86 2.147 11.218-5.68 10.994-19.348 11.163-30.11.134-8.5.787-16.476 4.763-24.176 4.478-8.658 13.15-14.074 21.706-18.038 8.5-3.946 18.785-6.692 28.187-6.764 5.08-.04 10.026 1.135 15 2.147-27.464 3.758-58.234 23.116-48.862 54.286 7.883 26.22 46.075 31.31 60.223 8.142 7.395-12.1 2.942-25.83-9.806-31.646-10.645-4.863-27.347 1.772-26.032 15.168.973 9.943 11.06 20.095 18.832 9.258 1.79-2.494-1.2-5.957-3.455-3.256-6.934 8.295-13.658-7.223-7.894-13.302 5.564-5.858 14.85-4.336 20.82-.243 14.907 10.2 1.238 28.652-11.436 32.452-27.524 8.265-50.69-25.86-30.775-47.455 19.76-21.438 54.095-20.967 79.593-13.56 21.708 6.307 43.427 16.404 65.594 15.533 1.52 0 3.01-.06 4.456-.194.198-.02.377-.107.548-.198a60.565 60.565 0 0 0 17.114-4.587c1.882-.813 1.713-5.065-.69-4.12M652.406 34.947c-9.482-5.317-20.805-5.302-29.32 1.707-8.564 7.05-13 21-7.44 30.94 10.288 18.377 48.16 6.617 35.193-14.464-5.642-9.17-23.613-6.848-22.04 5.67 1.324 10.528 13.854 11.913 16.05 1.12.725-3.575-4.155-4.05-4.87-.54-1.998 2.914-3.844 3.185-5.54.82-4.214-4.915 4.79-7.63 7.86-6.745 5.844 1.688 7.254 8.04 4.312 12.684-3.192 5.04-10.722 5.462-15.932 4.675-17.93-2.703-14.014-24.218-1.678-31.766 11.435-7.003 25.908 2.392 33.245 11.08 10.06 11.906 10.89 27.692-.5 38.904-16.798 16.535-41.107 5.925-57.55-5.08-15.95-10.67-27.972-25.147-46.046-32.655-18.446-7.666-39.157-7.768-58.745-6.254-11.867.92-23.674 3.738-35.164 6.786-6.877 1.827-13.966 4.602-21.06 6.603a92.47 92.47 0 0 0 8.5-9.13c6.353-7.833 9.967-17.63 18.843-23.19 5.06-3.167 11.64-3.708 17.07-1.422 6.386 2.69 4.852 10.37-.22 13.503-5.234 3.224-11.042-6.312-5.606-4.71 2.658.793 3.472-4.07 1.34-5.2-10.124-5.355-11.663 12.886-2.72 16.663 4.815 2.03 12.475-2.527 14.875-6.56 3.33-5.605 3.075-11.03-1.37-15.936-10.564-11.663-27.633-1.973-35.275 7.625-6.75 8.473-11.294 17.657-19.448 25.125-4.786 4.39-12.528 9.504-19.996 11.932 4.093-3.545 7.518-7.85 9.898-12.94 6.958-14.857-1.5-36.886-20.574-30.832-7.483 2.375-13.984 9.057-14.3 17.084-.314 7.964 7.668 12.817 14.732 12.812 5.682 0 11.006-6.05 9.1-11.775-2.185-6.573-9.227-9.695-12.277-2.132-1.023 2.53 1.715 5.02 3.656 2.63 2.5 4.12 1.985 5.92-1.547 5.392-2.264 0-4.43-1.134-6.203-2.415-8.81-6.36 4.64-15.047 9.407-16.573 12.44-3.982 16.528 9.704 15.1 18.87-3.17 20.376-25.733 24.347-42.54 26.46-6.21-.383-12.427-1.62-18.615-4.076-2.023-.8-3.078 3.45-1.07 4.314a60.847 60.847 0 0 0 16.913 4.51c.137.062.266.138.44.158 1.332.122 2.665.184 4.01.21 22.45 1.123 44.643-8.942 66.4-15.544 26.463-8.022 58.723-6.957 79.63 13.632 22.29 21.956-4.75 55.14-31.583 47.082-12.673-3.8-23.04-20.224-11.946-31.103 5.225-5.115 13.244-5.793 19.56-2.665 10.86 5.37 2.08 23.84-5.49 14.65-1.888-2.3-4.745 1.836-3.295 3.83 7.884 10.853 17.976.446 18.95-9.498 1.32-13.477-15.43-19.74-26.013-14.907-13.344 6.088-16.402 19.276-9.844 31.718 6.116 11.598 19.63 16.038 31.954 14.574 13.004-1.547 23.818-10.887 28.246-22.97 5.136-14.008.42-28.057-10.355-37.73-10.318-9.268-24.8-13.98-38.477-16.277 5.69-1.043 11.35-2.333 17.214-2.29 8.717.073 18.015 3.45 25.93 6.802 8.005 3.387 15.255 8.565 20.274 15.716 5.518 7.868 6.076 17.374 6.245 26.615.19 10.41-.233 23.013 9.864 29.223 7.372 4.527 16.553 4.34 23.108-1.527 15.942-14.247-9.382-44.154-17.846-24.878-2.724 6.193-3.188 14.712 5.752 14.818 6.066.075 10.542-5.68 6.578-10.946-2.162-2.87-5.627 1.038-3.83 3.555 1.392 1.948-3.212 1.86-4.418 1.5-4.525-1.35 2.628-9.408 2.72-9.47 2.85-2.013 6.486 1.685 8 3.455 6.252 7.287 3.47 18.34-5.8 20.777-21.55 5.665-18.832-24.577-19.803-36.79-1.413-17.828-13.357-30.05-28.937-37.278a65.63 65.63 0 0 0-3.904-1.64c11.784 1.667 23.224 5.14 33.85 11.275 8.776 5.07 15.776 12.72 23.602 19.062 7.592 6.153 15.803 11.552 24.587 15.848 15.525 7.583 32.594 8.464 46.725-2.328 22.552-17.218 10.663-48.29-10.55-60.18"/></g></svg>