<svg xmlns="http://www.w3.org/2000/svg" viewBox="0 0 360.00001 260.00001" width="360" height="260"><defs><marker id="f" orient="auto" overflow="visible"><path d="M-1.926-1.21L1.352-.005l-3.278 1.206a2.05 2.05 0 0 0 0-2.411z" fill="#333" fill-rule="evenodd" stroke="#333" stroke-width=".1875" stroke-linejoin="round"/></marker><marker orient="auto" id="e" overflow="visible"><path d="M-1.926-1.21L1.352-.005l-3.278 1.206a2.05 2.05 0 0 0 0-2.411z" fill="#333" fill-rule="evenodd" stroke="#333" stroke-width=".1875" stroke-linejoin="round"/></marker><marker orient="auto" id="d" overflow="visible"><path d="M-1.926-1.21L1.352-.005l-3.278 1.206a2.05 2.05 0 0 0 0-2.411z" fill="#333" fill-rule="evenodd" stroke="#333" stroke-width=".1875" stroke-linejoin="round"/></marker><marker id="c" orient="auto" overflow="visible"><path d="M-1.926-1.21L1.352-.005l-3.278 1.206a2.05 2.05 0 0 0 0-2.411z" fill="#333" fill-rule="evenodd" stroke="#333" stroke-width=".1875" stroke-linejoin="round"/></marker><marker id="b" orient="auto" overflow="visible"><path d="M-1.926-1.21L1.352-.005l-3.278 1.206a2.05 2.05 0 0 0 0-2.411z" fill="#333" fill-rule="evenodd" stroke="#333" stroke-width=".1875" stroke-linejoin="round"/></marker><marker orient="auto" id="a" overflow="visible"><path d="M-1.926-1.21L1.352-.005l-3.278 1.206a2.05 2.05 0 0 0 0-2.411z" fill="#333" fill-rule="evenodd" stroke="#333" stroke-width=".1875" stroke-linejoin="round"/></marker></defs><g transform="matrix(.1778 0 0 .1778 13.63 -139.805)"><path d="M262.546 1104.61c10.43 3.39 18 13.19 18 24.74 0 11.64-7.68 21.51-18.25 24.82.16-2.75.25-5.52.25-8.31v-39.71-.32zM-23.454 1145.86c0 2.79.09 5.56.25 8.31-10.56-3.31-18.25-13.18-18.25-24.82 0-11.55 7.57-21.35 18-24.74zM215.166 1122.15c-11.36-11.36-29.86-11.36-41.22 0a7.997 7.997 0 0 0 0 11.32c3.12 3.12 8.19 3.12 11.31 0 5.13-5.13 13.47-5.13 18.6 0a7.974 7.974 0 0 0 5.65 2.34c2.05 0 4.1-.78 5.66-2.34a7.997 7.997 0 0 0 0-11.32zm-101.29-35.85c39.49 19.01 84.09 28.38 132.67 27.86v31.7c0 70.03-56.97 127-127 127s-127-56.97-127-127v-52.22c30-4.94 51.37-19.71 64.91-44.91 11.52 10.51 30.16 24.93 56.42 37.57zm44.67 133.94a8.015 8.015 0 0 0 0-11.32 8.015 8.015 0 0 0-11.32 0c-15.26 15.27-40.1 15.27-55.36 0-3.13-3.12-8.19-3.12-11.31 0a7.997 7.997 0 0 0 0 11.32c10.75 10.75 24.87 16.12 38.99 16.12 14.12 0 28.24-5.37 39-16.12zm-93.39-86.77a8.015 8.015 0 0 0 0-11.32c-11.37-11.36-29.86-11.36-41.23 0a8.015 8.015 0 0 0 0 11.32c3.12 3.12 8.19 3.12 11.31 0 5.13-5.13 13.47-5.13 18.6 0a7.98 7.98 0 0 0 5.66 2.34c2.05 0 4.09-.78 5.66-2.34z" fill="#ffebfa"/><path d="M-21.254 1170.94c9.1 51.23 45.57 93.1 93.7 109.94-23.15 9.96-66.96 23.16-115.2 8.67 14.27-24.35 16.74-64.83 14.93-120.06 2.12.65 4.32 1.14 6.57 1.45zM266.906 1169.49c-1.81 55.24.66 95.72 14.93 120.07-28.25 8.54-58.18 8.68-89.12.41a189.117 189.117 0 0 1-26.1-9.08c48.14-16.83 84.63-58.71 93.73-109.95 2.25-.31 4.44-.8 6.56-1.45zM258.356 981.42c14.16 27.58 14.58 57.58 12.26 109.13a41.368 41.368 0 0 0-8.07-2.43v-8.13c0-4.42-3.58-8-8-8s-8 3.58-8 8v18.17c-110.2 1.17-169.85-51.91-185.77-68.51a8.012 8.012 0 0 0-7.27-2.33 8.036 8.036 0 0 0-5.91 4.82c-11.62 28.28-31.93 43.07-63.92 46.56a7.994 7.994 0 0 0-7.13 7.95v1.47c-2.8.54-5.5 1.36-8.08 2.43-2.32-51.54-1.9-81.53 12.28-109.13.86-1.68 1.78-3.37 2.74-5 10.53-18.11 30.69-29.52 52.59-29.77h.11c2.43-.05 4.71-1.2 6.18-3.13 17.27-22.52 43.14-36.01 70.98-37 32.72-1.17 64.94 6.81 93.18 23.07 23.74 13.67 41.18 31.1 51.83 51.83z" fill="#bf5b40"/><path d="M300.586 1288.29a8.023 8.023 0 0 1 1.84 7.25 8.036 8.036 0 0 1-4.95 5.6c-14.83 5.6-35.34 10.83-60.22 10.83-14.93 0-31.44-1.88-49.24-6.7-23.2-6.27-39.56-15.07-45.14-18.32a143.55 143.55 0 0 1-46.67 0c-5.58 3.25-21.94 12.05-45.13 18.32-13.35 3.61-30.36 6.69-49.51 6.69-18.44 0-38.86-2.85-59.96-10.82a8.001 8.001 0 0 1-4.94-5.6 7.99 7.99 0 0 1 1.83-7.25c18.74-20.75 19.54-73.63 17.32-128.35-8.16-7.66-13.27-18.54-13.27-30.59 0-10.58 3.94-20.26 10.43-27.65-2.73-55.8-4.18-93.11 13.54-127.59.99-1.93 2.04-3.86 3.14-5.74 12.73-21.88 36.39-36.03 62.39-37.58 20.15-24.52 49.35-39.14 80.73-40.26 35.72-1.28 70.89 7.44 101.73 25.19 26.46 15.23 46 34.88 58.08 58.39 17.7 34.46 16.25 71.78 13.53 127.58 6.48 7.39 10.43 17.07 10.43 27.66 0 12.05-5.11 22.93-13.28 30.6-2.21 54.71-1.42 107.59 17.32 128.34zm-20.04-158.94c0-11.55-7.57-21.35-18-24.74v41.25c0 2.79-.09 5.56-.25 8.31 10.57-3.31 18.25-13.18 18.25-24.82zm-9.93-38.8c2.32-51.55 1.9-81.55-12.26-109.13-10.65-20.73-28.09-38.16-51.83-51.83-28.24-16.26-60.46-24.24-93.18-23.07-27.84.99-53.71 14.48-70.98 37a7.974 7.974 0 0 1-6.18 3.13h-.11c-21.9.25-42.06 11.66-52.59 29.77-.96 1.63-1.88 3.32-2.74 5-14.18 27.6-14.6 57.59-12.28 109.13 2.58-1.07 5.28-1.89 8.08-2.43v-1.47c0-4.08 3.07-7.51 7.13-7.95 31.99-3.49 52.3-18.28 63.92-46.56a8.036 8.036 0 0 1 5.91-4.82c2.66-.5 5.39.37 7.27 2.33 15.92 16.6 75.57 69.68 185.77 68.51v-18.17c0-4.42 3.58-8 8-8s8 3.58 8 8v8.13c2.8.54 5.5 1.36 8.07 2.43zm11.22 199.01c-14.27-24.35-16.74-64.83-14.93-120.07-2.12.65-4.31 1.14-6.56 1.45-9.1 51.24-45.59 93.12-93.73 109.95 6.99 3.02 15.84 6.34 26.1 9.08 30.94 8.27 60.87 8.13 89.12-.41zm-35.29-143.7v-31.7c-48.58.52-93.18-8.85-132.67-27.86-26.26-12.64-44.9-27.06-56.42-37.57-13.54 25.2-34.91 39.97-64.91 44.91v52.22c0 70.03 56.97 127 127 127s127-56.97 127-127zm-174.1 135.02c-48.13-16.84-84.6-58.71-93.7-109.94-2.25-.31-4.45-.8-6.57-1.45 1.81 55.23-.66 95.71-14.93 120.06 48.24 14.49 92.05 1.29 115.2-8.67zm-95.65-126.71c-.16-2.75-.25-5.52-.25-8.31v-41.25c-10.43 3.39-18 13.19-18 24.74 0 11.64 7.69 21.51 18.25 24.82z" fill="#333"/><path d="M215.166 1122.15a7.997 7.997 0 0 1 0 11.32 7.98 7.98 0 0 1-5.66 2.34c-2.04 0-4.09-.78-5.65-2.34-5.13-5.13-13.47-5.13-18.6 0-3.12 3.12-8.19 3.12-11.31 0a7.997 7.997 0 0 1 0-11.32c11.36-11.36 29.86-11.36 41.22 0zM158.546 1208.92a8.015 8.015 0 0 1 0 11.32c-10.76 10.75-24.88 16.12-39 16.12-14.12 0-28.24-5.37-38.99-16.12a7.997 7.997 0 0 1 0-11.32c3.12-3.12 8.18-3.12 11.31 0 15.26 15.27 40.1 15.27 55.36 0a8.015 8.015 0 0 1 11.32 0zM65.156 1122.15a8.015 8.015 0 0 1 0 11.32 7.997 7.997 0 0 1-5.66 2.34c-2.05 0-4.1-.78-5.66-2.34-5.13-5.13-13.47-5.13-18.6 0-3.12 3.12-8.19 3.12-11.31 0a8.015 8.015 0 0 1 0-11.32c11.37-11.36 29.86-11.36 41.23 0z" fill="#333"/><rect width="1060.568" height="243.633" x="406.069" y="824.309" rx="28.122" ry="28.122" fill="#f5f5f5" stroke="#333" stroke-width="14.061"/><path d="M407.23 933.984h1053.842" fill="none" stroke="#333" stroke-width="14.061"/><g transform="translate(-26.367 582.674)"><circle cx="912.937" cy="909.545" r="206.806" fill="#e74545" stroke="#333" stroke-width="14.061"/><text style="line-height:1.25;text-align:center" x="911.956" y="931.823" font-weight="400" font-size="59.993" font-family="sans-serif" letter-spacing="0" word-spacing="0" text-anchor="middle" fill="#fff" stroke-width="5.624"><tspan x="911.956" y="931.823" style="-inkscape-font-specification:'sans-serif Bold';text-align:center" font-weight="700">Controller</tspan></text></g><g transform="translate(-521.79 1082.856)"><circle cx="912.937" cy="909.545" r="206.806" fill="#f4b552" stroke="#333" stroke-width="14.061"/><text style="line-height:1.25;text-align:center" x="911.956" y="931.823" font-weight="400" font-size="59.993" font-family="sans-serif" letter-spacing="0" word-spacing="0" text-anchor="middle" fill="#fff" stroke-width="5.624"><tspan x="911.956" y="931.823" style="-inkscape-font-specification:'sans-serif Bold';text-align:center" font-weight="700">View</tspan></text></g><g transform="translate(469.056 1082.856)"><circle cx="912.937" cy="909.545" r="206.806" fill="#8ccc79" stroke="#333" stroke-width="14.061"/><text style="line-height:1.25;text-align:center" x="911.956" y="931.823" font-weight="400" font-size="59.993" font-family="sans-serif" letter-spacing="0" word-spacing="0" text-anchor="middle" fill="#fff" stroke-width="5.624"><tspan x="911.956" y="931.823" style="-inkscape-font-specification:'sans-serif Bold';text-align:center" font-weight="700">Model</tspan></text></g><g fill="none" stroke="#333" stroke-width="14.061"><path d="M733.406 1107.591l-.577 84.158" marker-end="url(#a)" transform="translate(124.419 24.856)"/><path d="M790.927 1214.19l-.577-84.157" marker-end="url(#b)" transform="translate(124.419 24.856)"/></g><g fill="none" stroke="#333" stroke-width="14.061"><path d="M883.417 1645.684l58.48 64.472" marker-end="url(#c)" transform="translate(199.982 54.938)"/><path d="M995.905 1682.242l-56.821-64.888" marker-end="url(#d)" transform="translate(199.982 54.938)"/></g><g fill="none" stroke="#333" stroke-width="14.061"><path d="M573.988 1590.112l-63.198 59.855" marker-end="url(#e)" transform="translate(60.786 70.846)"/><path d="M539.861 1703.361l63.65-58.206" marker-end="url(#f)" transform="translate(60.786 70.846)"/></g><text style="line-height:1.25;-inkscape-font-specification:'sans-serif, Normal';font-variant-ligatures:normal;font-variant-caps:normal;font-variant-numeric:normal;font-feature-settings:normal;text-align:start" x="589.41" y="896.477" font-weight="400" font-size="44.995" font-family="sans-serif" letter-spacing="0" word-spacing="0" fill="#333" stroke-width="5.624"><tspan x="589.41" y="896.477" style="-inkscape-font-specification:'sans-serif, Bold';font-variant-ligatures:normal;font-variant-caps:normal;font-variant-numeric:normal;font-feature-settings:normal;text-align:start" font-weight="700">https://www.youtube.com</tspan></text><path d="M80.923 982.453l-.254 29.678-25.176-14.564z" transform="matrix(.67283 0 0 -1.1006 414.673 1976.84)" fill="#333" stroke="#333" stroke-width="14.061"/><path transform="matrix(-.67283 0 0 -1.1006 552.177 1976.84)" d="M80.923 982.453l-.254 29.678-25.176-14.564z" fill="#333" stroke="#333" stroke-width="14.061"/><text style="line-height:1.25;-inkscape-font-specification:'sans-serif, Normal';font-variant-ligatures:normal;font-variant-caps:normal;font-variant-numeric:normal;font-feature-settings:normal;text-align:start" x="1376.625" y="899.886" font-weight="400" font-size="59.993" font-family="sans-serif" letter-spacing="0" word-spacing="0" fill="#333" stroke-width="5.624"><tspan x="1376.625" y="899.886" style="-inkscape-font-specification:'sans-serif, Normal';font-variant-ligatures:normal;font-variant-caps:normal;font-variant-numeric:normal;font-feature-settings:normal;text-align:start" dx="0">✖</tspan></text><text style="line-height:1.25" x="190.496" y="1624.349" font-weight="400" font-size="224.975" font-family="sans-serif" letter-spacing="0" word-spacing="0" stroke-width="5.624"/><g transform="translate(-271.491 10.313)"><circle r="57.65" cy="642.868" cx="994.34" transform="translate(4.66 535.749)" fill="#f5f5f5" stroke="#333" stroke-width="14.061"/><text y="1205.952" x="997.718" style="line-height:1.25;-inkscape-font-specification:'sans-serif, Normal';font-variant-ligatures:normal;font-variant-caps:normal;font-variant-numeric:normal;font-feature-settings:normal;text-align:center" font-weight="400" font-size="74.992" font-family="sans-serif" letter-spacing="0" word-spacing="0" text-anchor="middle" fill="#333" stroke-width="5.624"><tspan style="-inkscape-font-specification:'sans-serif, Bold';font-variant-ligatures:normal;font-variant-caps:normal;font-variant-numeric:normal;font-feature-settings:normal;text-align:center" y="1205.952" x="997.718" font-weight="700">1</tspan></text></g><g transform="translate(20.757 637.894)"><circle transform="translate(4.66 535.749)" cx="994.34" cy="642.868" r="57.65" fill="#f5f5f5" stroke="#333" stroke-width="14.061"/><text style="line-height:1.25;-inkscape-font-specification:'sans-serif, Normal';font-variant-ligatures:normal;font-variant-caps:normal;font-variant-numeric:normal;font-feature-settings:normal;text-align:center" x="997.718" y="1205.952" font-weight="400" font-size="74.992" font-family="sans-serif" letter-spacing="0" word-spacing="0" text-anchor="middle" fill="#333" stroke-width="5.624"><tspan x="997.718" y="1205.952" style="-inkscape-font-specification:'sans-serif, Bold';font-variant-ligatures:normal;font-variant-caps:normal;font-variant-numeric:normal;font-feature-settings:normal;text-align:center" font-weight="700">2</tspan></text></g><g transform="translate(-506.2 448.985)"><circle r="57.65" cy="642.868" cx="994.34" transform="translate(4.66 535.749)" fill="#f5f5f5" stroke="#333" stroke-width="14.061"/><text y="1205.952" x="997.718" style="line-height:1.25;-inkscape-font-specification:'sans-serif, Normal';font-variant-ligatures:normal;font-variant-caps:normal;font-variant-numeric:normal;font-feature-settings:normal;text-align:center" font-weight="400" font-size="74.992" font-family="sans-serif" letter-spacing="0" word-spacing="0" text-anchor="middle" fill="#333" stroke-width="5.624"><tspan style="-inkscape-font-specification:'sans-serif, Bold';font-variant-ligatures:normal;font-variant-caps:normal;font-variant-numeric:normal;font-feature-settings:normal;text-align:center" y="1205.952" x="997.718" font-weight="700">4</tspan></text></g><g transform="translate(261.752 441.666)"><circle transform="translate(4.66 535.749)" cx="994.34" cy="642.868" r="57.65" fill="#f5f5f5" stroke="#333" stroke-width="14.061"/><text style="line-height:1.25;-inkscape-font-specification:'sans-serif, Normal';font-variant-ligatures:normal;font-variant-caps:normal;font-variant-numeric:normal;font-feature-settings:normal;text-align:center" x="997.718" y="1205.952" font-weight="400" font-size="74.992" font-family="sans-serif" letter-spacing="0" word-spacing="0" text-anchor="middle" fill="#333" stroke-width="5.624"><tspan x="997.718" y="1205.952" style="-inkscape-font-specification:'sans-serif, Bold';font-variant-ligatures:normal;font-variant-caps:normal;font-variant-numeric:normal;font-feature-settings:normal;text-align:center" font-weight="700">3</tspan></text></g><g transform="translate(-293.044 652.449)"><circle r="57.65" cy="642.868" cx="994.34" transform="translate(4.66 535.749)" fill="#f5f5f5" stroke="#333" stroke-width="14.061"/><text y="1205.952" x="997.718" style="line-height:1.25;-inkscape-font-specification:'sans-serif, Normal';font-variant-ligatures:normal;font-variant-caps:normal;font-variant-numeric:normal;font-feature-settings:normal;text-align:center" font-weight="400" font-size="74.992" font-family="sans-serif" letter-spacing="0" word-spacing="0" text-anchor="middle" fill="#333" stroke-width="5.624"><tspan style="-inkscape-font-specification:'sans-serif, Bold';font-variant-ligatures:normal;font-variant-caps:normal;font-variant-numeric:normal;font-feature-settings:normal;text-align:center" y="1205.952" x="997.718" font-weight="700">5</tspan></text></g><g transform="translate(-67.484 12.146)"><circle r="57.65" cy="1178.617" cx="1111.487" fill="#f5f5f5" stroke="#333" stroke-width="14.061"/><text y="1205.952" x="1110.205" style="line-height:1.25;-inkscape-font-specification:'sans-serif, Normal';font-variant-ligatures:normal;font-variant-caps:normal;font-variant-numeric:normal;font-feature-settings:normal;text-align:center" font-weight="400" font-size="74.992" font-family="sans-serif" letter-spacing="0" word-spacing="0" text-anchor="middle" fill="#333" stroke-width="5.624"><tspan style="-inkscape-font-specification:'sans-serif, Bold';font-variant-ligatures:normal;font-variant-caps:normal;font-variant-numeric:normal;font-feature-settings:normal;text-align:center" y="1205.952" x="1110.205" font-weight="700">6</tspan></text></g><g><g transform="translate(-225.637 1421.8)"><rect ry="28.122" rx="28.122" y="1847.444" x="1641.68" height="122.553" width="406.737" transform="translate(80.341 -1166.197)" fill="#f5f5f5" stroke="#333" stroke-width="14.061"/><text y="764.86" x="1923.837" style="line-height:1.25;text-align:center" font-weight="400" font-size="59.993" font-family="sans-serif" letter-spacing="0" word-spacing="0" text-anchor="middle" fill="#333" stroke-width="5.624"><tspan style="-inkscape-font-specification:'sans-serif Bold';text-align:center" y="764.86" x="1923.837" font-weight="700">Database</tspan></text></g></g><g><g transform="translate(-1763.351 1421.8)"><rect ry="28.122" rx="28.122" y="1847.444" x="1641.68" height="122.553" width="406.737" transform="translate(80.341 -1166.197)" fill="#f5f5f5" stroke="#333" stroke-width="14.061"/><text y="764.86" x="1923.837" style="line-height:1.25;text-align:center" font-weight="400" font-size="59.993" font-family="sans-serif" letter-spacing="0" word-spacing="0" text-anchor="middle" fill="#333" stroke-width="5.624"><tspan style="-inkscape-font-specification:'sans-serif Bold';text-align:center" y="764.86" x="1923.837" font-weight="700">HTML</tspan></text></g></g></g></svg>