<?xml version="1.0" standalone="no"?>
<!DOCTYPE svg PUBLIC "-//W3C//DTD SVG 20010904//EN"
 "http://www.w3.org/TR/2001/REC-SVG-20010904/DTD/svg10.dtd">
<svg version="1.0" xmlns="http://www.w3.org/2000/svg"
 width="700.000000pt" height="700.000000pt" viewBox="0 0 700.000000 700.000000"
 preserveAspectRatio="xMidYMid meet">
<metadata>
Created by potrace 1.11, written by Peter Selinger 2001-2013
</metadata>
<g transform="translate(0.000000,700.000000) scale(0.100000,-0.100000)"
fill="#000000" stroke="none">
<path d="M6377 6729 c-32 -7 -146 -53 -262 -104 -499 -219 -1354 -485 -1769
-551 -21 -3 -48 -7 -60 -10 -11 -2 -48 -7 -81 -10 -33 -4 -63 -8 -66 -10 -3
-2 -41 -6 -85 -9 -43 -4 -95 -8 -114 -10 -19 -3 -69 -7 -110 -10 -41 -3 -91
-8 -110 -11 -19 -2 -57 -7 -85 -9 -27 -3 -84 -10 -125 -16 -41 -6 -86 -12
-100 -14 -122 -18 -346 -89 -524 -167 -76 -33 -354 -176 -366 -188 -7 -7 -36
-24 -85 -50 -58 -32 -338 -216 -425 -279 -303 -222 -575 -508 -788 -827 -58
-86 -182 -297 -182 -309 0 -3 -8 -17 -17 -31 -46 -71 -177 -383 -240 -574 -54
-162 -126 -439 -149 -565 -10 -62 -14 -81 -19 -105 -2 -13 -7 -42 -10 -65 -3
-22 -10 -67 -15 -100 -5 -33 -12 -91 -16 -130 -3 -38 -8 -78 -10 -88 -24 -133
-24 -1061 1 -1467 10 -172 20 -297 31 -382 17 -146 18 -151 41 -254 8 -40 25
-84 37 -99 19 -24 25 -26 44 -16 67 36 86 191 84 691 -2 811 -2 930 2 990 3
36 8 109 11 163 3 53 8 106 10 116 2 11 6 48 9 83 3 34 8 74 10 88 3 14 10 59
16 100 6 41 14 86 16 100 2 14 7 41 10 60 3 19 7 37 9 40 2 3 6 24 9 46 9 57
13 77 51 224 14 58 28 113 30 124 7 29 75 249 85 271 4 11 25 65 46 120 106
282 250 544 399 723 149 179 362 384 480 461 22 14 42 28 45 31 21 23 222 132
325 177 169 74 524 175 760 217 17 3 73 14 125 25 53 11 113 23 135 26 22 4
51 8 65 11 28 5 55 9 158 24 222 31 437 33 495 6 20 -10 37 -24 37 -31 0 -33
-164 -130 -385 -227 -33 -14 -86 -38 -117 -52 -32 -14 -124 -54 -205 -90 -221
-95 -392 -178 -453 -219 -89 -59 -93 -63 -86 -92 10 -38 83 -68 267 -110 192
-44 275 -71 317 -102 59 -44 35 -102 -63 -151 -74 -37 -305 -107 -485 -147
-407 -91 -555 -140 -688 -229 -38 -25 -86 -64 -107 -87 -80 -88 -284 -431
-322 -540 -80 -231 5 -494 201 -621 95 -61 207 -68 366 -22 207 60 425 148
635 258 216 112 605 358 715 453 117 101 300 293 388 408 81 107 210 291 259
370 11 17 53 86 83 135 37 60 128 225 180 325 192 370 276 517 413 723 177
269 387 536 622 792 80 88 377 383 544 540 227 213 255 245 230 261 -16 10
-21 10 -72 -2z"/>
<path d="M1510 1603 c-186 -25 -356 -160 -415 -328 -23 -66 -28 -197 -10 -265
60 -227 255 -381 485 -382 70 -1 95 4 140 24 96 43 160 113 195 213 25 73 30
109 29 215 -1 78 -7 112 -33 188 -78 231 -225 357 -391 335z"/>
</g>
</svg>
