<?xml version="1.0" encoding="UTF-8" standalone="no"?>
<svg
   xmlns:dc="http://purl.org/dc/elements/1.1/"
   xmlns:cc="http://creativecommons.org/ns#"
   xmlns:rdf="http://www.w3.org/1999/02/22-rdf-syntax-ns#"
   xmlns:svg="http://www.w3.org/2000/svg"
   xmlns="http://www.w3.org/2000/svg"
   xmlns:sodipodi="http://sodipodi.sourceforge.net/DTD/sodipodi-0.dtd"
   xmlns:inkscape="http://www.inkscape.org/namespaces/inkscape"
   width="149.598"
   height="171.175"
   viewBox="0, 0, 149.598, 171.175"
   version="1.1"
   id="svg408"
   sodipodi:docname="blake-logo.inkscape.svg"
   inkscape:version="0.92.1 r">
  <defs
     id="defs4941" />
  <sodipodi:namedview
     pagecolor="#ffffff"
     bordercolor="#666666"
     borderopacity="1"
     objecttolerance="10"
     gridtolerance="10"
     guidetolerance="10"
     inkscape:pageopacity="0"
     inkscape:pageshadow="2"
     inkscape:window-width="1235"
     inkscape:window-height="705"
     id="namedview4939"
     showgrid="false"
     inkscape:zoom="2.6321318"
     inkscape:cx="63.005669"
     inkscape:cy="84.155498"
     inkscape:window-x="7"
     inkscape:window-y="23"
     inkscape:window-maximized="0"
     inkscape:current-layer="svg408" />
  <metadata
     id="metadata412">
    <rdf:RDF>
      <cc:Work
         rdf:about="">
        <dc:format>image/svg+xml</dc:format>
        <dc:type
           rdf:resource="http://purl.org/dc/dcmitype/StillImage" />
        <dc:title />
      </cc:Work>
    </rdf:RDF>
  </metadata>
  <path
     d="m 81.274,119.454 v -3.02 c -5.189,0.93 -10.723,1.135 -13.346,0.897 -1.547,-0.14 -2.664,-0.467 -3.343,-0.953 -0.673,-0.509 -0.975,-1.256 -0.884,-2.264 0.078,-0.839 0.405,-1.977 0.962,-3.466 0.582,-1.461 1.562,-3.735 2.957,-6.761 5.025,-0.378 9.577,-1.171 13.654,-2.385 v -3.534 a 29.345,29.345 0 0 1 -12.573,3.609 c 3.374,-6.719 7.339,-12.295 11.817,-16.703 0.256,-0.249 0.509,-0.492 0.756,-0.726 v -7.462 c -0.348,0.097 -0.698,0.203 -1.053,0.312 -4.117,1.285 -8.248,3.268 -12.414,5.891 -4.903,3.078 -8.658,6.36 -11.23,9.775 -2.6,3.415 -4.074,7.032 -4.423,10.851 -0.414,4.507 0.751,8.314 3.498,11.424 2.747,3.083 6.628,4.709 11.561,5.308 3.002,0.367 8.922,0.041 14.061,-0.793 m 0,-58.261 a 42.303,42.303 0 0 0 -0.619,-0.004 c -5.6,0 -10.699,0.872 -15.322,2.617 -4.606,1.761 -8.724,4.378 -12.352,7.883 a 37.505,37.505 0 0 0 -8.832,13.149 c -2.006,5.005 -3.002,10.531 -3.002,16.577 0,5.236 0.859,9.782 2.557,13.655 1.7,3.874 4.409,7.378 8.114,10.516 3.413,2.893 7.317,5.082 11.71,6.566 4.392,1.484 9.168,2.22 14.341,2.22 1.143,0 2.278,-0.043 3.405,-0.129 v 2.296 c -1.303,0.107 -2.616,0.16 -3.941,0.16 -5.586,0 -10.7,-0.69 -15.337,-2.082 -4.637,-1.393 -8.724,-3.459 -12.291,-6.215 -4.515,-3.382 -7.945,-7.485 -10.287,-12.307 -2.342,-4.837 -3.521,-10.194 -3.521,-16.072 0,-6.108 1.287,-11.803 3.857,-17.099 2.572,-5.279 6.307,-9.964 11.206,-14.037 3.918,-3.275 8.267,-5.755 13.056,-7.408 4.776,-1.668 9.92,-2.495 15.431,-2.495 0.616,0 1.225,0.01 1.827,0.03 z m 0,15.493 v 7.462 c 4.139,-3.909 7.381,-5.756 9.681,-5.545 0.864,0.08 1.588,0.566 2.154,1.439 0.59,0.875 0.821,1.89 0.715,3.046 -0.376,4.09 -3.128,8.086 -8.234,12.041 a 32.948,32.948 0 0 1 -4.316,2.839 v 3.534 c 3.293,-0.979 6.275,-2.233 8.945,-3.765 6.004,-3.421 9.205,-7.451 9.629,-12.06 0.263,-2.882 -0.364,-5.249 -1.914,-7.055 -1.522,-1.804 -3.762,-2.855 -6.694,-3.124 -2.952,-0.27 -6.254,0.133 -9.966,1.188 m 0,57.557 a 44.66,44.66 0 0 0 10.83,-2.198 c 4.625,-1.561 9.033,-3.856 13.257,-6.919 l 1.348,1.622 c -4.439,3.291 -9.109,5.772 -14.037,7.441 a 47.555,47.555 0 0 1 -11.398,2.35 z m 30.134,-45.212 c 0,-4.178 -0.751,-7.944 -2.236,-11.295 -1.498,-3.354 -3.779,-6.383 -6.873,-9.109 -2.678,-2.356 -5.906,-4.193 -9.674,-5.495 -3.58,-1.236 -7.367,-1.88 -11.351,-1.939 v -2.179 c 9.513,0.314 17.183,3.103 22.986,8.357 6.168,5.589 9.26,13.043 9.26,22.381 0,14.995 -12.631,22.597 -25.084,27.891 -1.739,0.738 -4.332,1.351 -7.162,1.811 v -3.02 c 2.311,-0.414 4.553,-0.973 6.439,-1.699 11.331,-4.367 23.695,-12.281 23.695,-25.704"
     id="path316"
     style="fill:#000000;fill-opacity:1;opacity:0.6"
     inkscape:connector-curvature="0" />
  <path
     d="m 26.567,153.922 h 7.691 v -1.688 h -5.836 v -11.272 h -1.855 z m 10.834,-0.019 h 7.523 v -1.651 h -5.668 v -4.026 h 5.308 v -1.661 h -5.308 v -3.952 h 5.492 v -1.651 h -7.347 z m 9.591,0.019 H 48.9 l 1.619,-3.842 h 5.528 l 1.729,3.842 h 1.898 L 53.863,140.887 H 52.56 Z m 4.264,-5.492 1.939,-4.695 2.09,4.695 z m 13.269,5.492 v -5.641 h 0.483 c 0.606,0 1.039,0.07 1.295,0.209 0.258,0.139 0.545,0.366 0.865,0.681 0.319,0.314 0.67,0.737 1.053,1.27 l 0.619,1.011 0.576,0.948 0.361,0.509 0.11,0.159 0.566,0.854 h 2.208 l -0.686,-0.929 a 25.12,25.12 0 0 1 -1.086,-1.659 c -0.717,-1.17 -1.274,-1.989 -1.67,-2.46 -0.396,-0.469 -0.801,-0.841 -1.215,-1.112 0.705,-0.272 1.246,-0.684 1.623,-1.234 0.377,-0.55 0.567,-1.204 0.567,-1.958 0,-1.107 -0.385,-1.985 -1.155,-2.634 -0.77,-0.651 -1.811,-0.974 -3.123,-0.974 H 62.67 v 12.96 z m 2.509,-11.18 c 0.394,0.137 0.698,0.37 0.914,0.701 0.216,0.331 0.325,0.701 0.325,1.109 0,0.414 -0.097,0.784 -0.292,1.108 a 1.82,1.82 0 0 1 -0.817,0.729 c -0.349,0.161 -0.994,0.241 -1.933,0.241 h -0.706 v -4.092 h 0.557 c 0.908,0 1.559,0.069 1.952,0.204 m 18.873,8.286 -8.739,-10.066 h -1.502 v 12.96 h 1.743 v -9.982 l 8.665,9.982 h 1.596 v -12.96 h -1.763 z m 6.076,2.894 h 1.855 v -12.96 h -1.855 z m 16.549,-2.894 -8.739,-10.066 h -1.502 v 12.96 h 1.743 v -9.982 l 8.665,9.982 h 1.596 v -12.96 h -1.763 z m 13.062,-1.837 h 2.494 v 2.699 l -0.176,0.056 c -1.033,0.339 -1.92,0.509 -2.662,0.509 -1.527,0 -2.777,-0.466 -3.748,-1.4 -0.972,-0.935 -1.457,-2.137 -1.457,-3.609 0,-1.404 0.485,-2.588 1.457,-3.553 0.971,-0.965 2.164,-1.447 3.58,-1.447 1.523,0 3.057,0.448 4.603,1.344 v -1.891 c -1.003,-0.421 -1.831,-0.71 -2.487,-0.868 a 8.787,8.787 0 0 0 -2.078,-0.236 c -2.004,0 -3.671,0.643 -5.001,1.929 -1.33,1.287 -1.994,2.897 -1.994,4.834 0,1.837 0.641,3.381 1.926,4.634 1.283,1.252 2.998,1.878 5.144,1.878 1.571,0 3.153,-0.346 4.75,-1.039 v -5.493 h -4.351 v 1.653"
     id="path358"
     style="fill:#000000;fill-opacity:1;opacity:0.6"
     inkscape:connector-curvature="0" />
  <g
     id="g4947"
     style="opacity:0.6">
    <path
       fill="#FFFFFE"
       style="fill:#000000;fill-opacity:1"
       id="path400"
       d="M51.363 20.026c1.134-.981 1.341-1.084 1.858-1.084.412 0 .826.515.826.981 0 .103 0 .258-.053.412 2.27 0 3.509.104 5.315.465 4.025.825 6.244 2.992 6.244 6.243 0 3.2-2.838 5.573-8.824 7.278-4.025 1.134-8.154 2.064-10.424 2.374 3.097.567 3.871.773 5.265 1.34 2.733 1.188 4.127 2.994 4.127 5.368 0 2.58-1.497 5.005-4.593 7.328-4.644 3.458-10.115 5.419-15.069 5.419-4.748 0-7.586-2.168-7.586-5.883 0-.776.052-1.291.258-2.168-.721.773-3.095 3.664-4.025 4.8-.929 1.29-1.652 1.857-2.166 1.857-.621 0-1.342-.619-1.342-1.136 0-.515.463-1.29 1.547-2.631 2.787-3.407 5.728-6.864 8.516-9.856 2.115-2.271 2.941-3.252 2.941-3.458 0-.103-.104-.31-.207-.517a.969.969 0 0 1-.207-.567c0-.619.724-.93 2.375-.93 5.315-5.572 9.391-9.804 12.23-12.693-5.935.67-10.941 1.856-13.984 3.404-.774.413-1.445.619-1.858.619-.464 0-1.033-.514-1.033-1.031 0-.825.723-1.393 3.096-2.374 4.336-1.806 9.908-2.889 16.463-3.303l.31-.257zm-7.586 11.3c-2.117 2.272-2.323 2.478-3.923 4.233 14.967-1.961 24.41-5.676 24.41-9.599 0-2.322-3.149-3.354-10.115-3.354-.774 0-.877 0-2.373.102-2.117 2.322-4.801 5.161-7.999 8.618M33.405 42.732c-2.737 3.354-3.872 5.521-3.872 7.328 0 2.168 2.27 3.56 5.831 3.56 8.207 0 18.476-6.14 18.476-11.094 0-1.446-1.033-2.632-3.097-3.407-2.889-1.134-6.141-1.703-10.012-1.703-1.032 0-1.495.052-2.631.259-1.754 1.651-2.89 2.89-4.695 5.057M65.088 54.86c-.258.05-.465.05-.723.05-1.341 0-2.064-.722-2.064-2.115 0-1.548.671-3.56 2.013-6.141a316.254 316.254 0 0 1-5.006 3.664c-4.386 3.302-5.883 4.077-8.257 4.437h-.104c-.102.052-.205.052-.257.052-.207 0-.31-.103-.31-.309 0-.31.206-.516.517-.568 1.961-.31 3.457-1.084 6.552-3.354l8.051-5.935c1.549-2.477 3.406-4.954 6.194-7.999 6.552-7.224 11.972-11.714 14.087-11.714.723 0 1.135.464 1.135 1.238 0 1.548-1.547 3.922-5.006 7.638-3.714 4.025-5.572 5.625-12.746 11.043-1.392 1.033-1.806 1.549-3.252 4.129-1.237 2.22-1.959 3.819-1.959 4.438 0 .413.31.619.877.619.155 0 .258 0 .412-.051h.104c.207 0 .361.206.361.413 0 .309-.102.412-.515.465h-.104zm20.951-28.745c0-.207-.154-.413-.36-.413-.724 0-2.735 1.961-8.31 8.206-4.489 5.108-6.346 7.328-7.843 9.598 9.339-7.07 16.513-14.656 16.513-17.391" />
    <path
       fill="#FFFFFE"
       style="fill:#000000;fill-opacity:1"
       id="path402"
       d="M89.135 42.783c.67-.619.824-.722 1.135-.722.464 0 .826.259.826.722 0 .62 0 .62-2.065 3.149-.619.773-.619.773-1.341 1.598-.93 1.136-1.961 2.426-3.149 3.872-.826 1.032-1.186 1.652-1.186 2.012 0 .412.412.568 1.135.568.413 0 .516.103.516.413 0 .413-.309.515-1.703.515-.981 0-1.703-.619-1.703-1.496 0-.878.207-1.393 1.392-3.405-4.746 4.024-5.314 4.386-6.81 4.386-1.29 0-2.168-.877-2.168-2.219 0-.826.207-1.651.62-2.633-.981.724-1.138.826-2.117 1.601-3.355 2.528-4.695 3.251-6.812 3.611l-.258.053h-.102c-.207 0-.312-.104-.312-.311 0-.308.209-.515.518-.567 2.168-.206 5.521-2.426 12.9-8.772 2.684-2.271 6.348-4.078 8.362-4.078 1.236 0 1.908.569 2.062 1.91l.26-.207zm-6.864 2.632c-4.283 3.82-5.935 5.831-5.935 7.071 0 .413.259.669.619.669.826 0 2.994-1.547 6.194-4.385 3.199-2.891 4.696-4.697 4.696-5.831 0-.517-.259-.826-.774-.826-.878 0-2.014.774-4.8 3.302" />
    <path
       fill="#FFFFFE"
       style="fill:#000000;fill-opacity:1"
       id="path404"
       d="M100.594 43.867l-1.909 1.651c-8.98 7.535-10.89 8.825-13.675 9.238h-.105c-.155.051-.256.051-.256.051-.207 0-.311-.103-.311-.309 0-.31.207-.516.517-.568 2.321-.361 4.643-1.857 11.25-7.379l3.045-2.58c3.354-2.529 9.133-8.619 17.235-18.269.878-1.135 1.445-1.547 2.064-1.547.463 0 .827.36.827.876 0 1.342-.104 1.497-9.239 11.818-3.922 4.49-4.799 5.47-6.14 7.122 3.095-2.168 4.129-2.684 5.521-2.684 1.188 0 2.014.827 2.014 2.013 0 1.496-1.291 2.786-3.923 3.87-2.167.929-3.923 1.29-6.089 1.393 1.959 4.593 2.527 5.471 3.457 5.471.052 0 .154 0 .258-.052h.207c.154 0 .31.206.31.413 0 .412-.465.567-2.013.567-1.135 0-1.755-.464-2.426-1.702-.465-.827-.877-1.652-1.909-3.768-.825.929-1.189 1.291-2.478 2.89-1.599 1.961-2.218 2.58-2.631 2.58-.464 0-1.033-.671-1.033-1.238 0-.671.465-1.291 7.484-9.599.257-.309.516-.619.774-.98l-.826.722zm8.721-.67c0-.31-.311-.568-.722-.568-1.703 0-4.8 2.064-7.947 5.315 3.922-.361 8.669-2.942 8.669-4.747" />
    <path
       fill="#FFFFFE"
       style="fill:#000000;fill-opacity:1"
       id="path406"
       d="M120.098 54.86c-.516.102-1.549.154-2.272.154-2.168 0-3.301-.981-3.301-2.89 0-.465.051-.774.153-1.393-1.34.361-2.063.722-4.231 1.962-2.218 1.34-3.301 1.805-4.798 2.062h-.104c-.154.052-.258.052-.258.052-.207 0-.309-.103-.309-.309 0-.31.206-.516.516-.568 1.445-.258 2.477-.722 4.799-2.064 2.168-1.29 2.683-1.497 4.695-2.013 1.084-2.477 2.323-3.973 4.749-5.883 2.888-2.219 5.056-3.302 6.657-3.302 1.29 0 1.961.568 1.961 1.652 0 1.908-1.909 3.766-6.193 5.985-1.755.93-2.994 1.496-4.49 2.013-.207.619-.31 1.032-.31 1.703 0 1.496.775 2.012 2.89 1.961.517 0 .619.051.619.413 0 .309-.102.36-.619.465h-.154zm6.193-12.645c0-.361-.207-.619-.516-.619-1.91 0-6.451 4.49-7.742 7.69 4.284-2.116 8.258-5.522 8.258-7.071" />
  </g>
</svg>
