<svg xmlns="http://www.w3.org/2000/svg" width="149.598" height="171.175" viewBox="0, 0, 149.598, 171.175"><path d="M81.274 119.454v-3.02c-5.19.93-10.723 1.135-13.346.897-1.547-.14-2.664-.466-3.343-.952-.673-.51-.975-1.256-.884-2.264.08-.84.406-1.977.963-3.466.582-1.46 1.562-3.735 2.957-6.76 5.025-.38 9.577-1.172 13.654-2.386v-3.534a29.345 29.345 0 0 1-12.573 3.61c3.375-6.72 7.34-12.296 11.818-16.704.256-.25.51-.492.756-.726v-7.462c-.348.097-.698.203-1.053.312-4.116 1.285-8.247 3.268-12.413 5.89-4.903 3.08-8.658 6.36-11.23 9.776-2.6 3.415-4.074 7.032-4.423 10.85-.414 4.508.75 8.315 3.498 11.425 2.747 3.082 6.628 4.708 11.56 5.307 3.003.367 8.923.04 14.062-.793m0-58.26a42.303 42.303 0 0 0-.62-.005c-5.6 0-10.698.87-15.32 2.616-4.607 1.76-8.725 4.378-12.353 7.883a37.505 37.505 0 0 0-8.83 13.148c-2.007 5.005-3.003 10.53-3.003 16.577 0 5.236.86 9.782 2.557 13.655 1.7 3.874 4.41 7.378 8.114 10.516 3.413 2.893 7.317 5.082 11.71 6.566 4.392 1.484 9.168 2.22 14.34 2.22 1.144 0 2.28-.043 3.406-.13v2.297c-1.303.106-2.616.16-3.94.16-5.587 0-10.7-.69-15.338-2.083-4.637-1.393-8.724-3.46-12.29-6.215-4.516-3.382-7.946-7.485-10.288-12.307-2.342-4.837-3.52-10.194-3.52-16.072 0-6.108 1.286-11.803 3.856-17.1 2.572-5.278 6.307-9.963 11.206-14.036 3.918-3.275 8.267-5.755 13.056-7.408 4.776-1.67 9.92-2.496 15.43-2.496.617 0 1.226.01 1.828.03zm0 15.492v7.462c4.14-3.91 7.38-5.756 9.68-5.545.865.08 1.59.566 2.155 1.44.59.874.82 1.89.714 3.045-.376 4.09-3.128 8.086-8.234 12.04a32.948 32.948 0 0 1-4.316 2.84v3.534c3.293-.98 6.275-2.233 8.945-3.765 6.003-3.42 9.204-7.45 9.628-12.06.263-2.882-.364-5.25-1.914-7.055-1.522-1.804-3.762-2.855-6.694-3.124-2.952-.27-6.254.133-9.966 1.188m0 57.557a44.66 44.66 0 0 0 10.83-2.198c4.625-1.56 9.033-3.856 13.257-6.92l1.35 1.623c-4.44 3.29-9.11 5.772-14.038 7.44a47.555 47.555 0 0 1-11.398 2.35zm30.134-45.212c0-4.177-.75-7.943-2.236-11.294-1.498-3.354-3.78-6.383-6.873-9.11-2.68-2.355-5.907-4.192-9.675-5.494-3.58-1.236-7.367-1.88-11.35-1.94v-2.178c9.512.314 17.182 3.103 22.985 8.357 6.168 5.59 9.26 13.044 9.26 22.382 0 14.995-12.63 22.597-25.084 27.89-1.74.74-4.332 1.352-7.162 1.812v-3.02c2.31-.414 4.553-.973 6.44-1.7 11.33-4.366 23.694-12.28 23.694-25.703M26.567 153.922h7.69v-1.688h-5.835v-11.272h-1.855zm10.834-.02h7.524v-1.65h-5.668v-4.026h5.308v-1.66h-5.308v-3.953h5.492v-1.65H37.4zm9.592.02H48.9l1.62-3.842h5.527l1.73 3.842h1.897l-5.81-13.035H52.56zm4.264-5.492l1.94-4.695 2.09 4.695zm13.27 5.492v-5.64h.482c.606 0 1.04.07 1.295.208.258.14.545.366.865.68.32.315.67.738 1.053 1.27l.62 1.012.576.948.36.51.11.158.567.854h2.208l-.685-.93a25.12 25.12 0 0 1-1.086-1.658c-.718-1.17-1.275-1.99-1.67-2.46-.397-.47-.802-.84-1.216-1.112.705-.272 1.246-.684 1.623-1.234.377-.55.567-1.204.567-1.958 0-1.107-.385-1.985-1.155-2.634-.77-.65-1.812-.974-3.124-.974H62.67v12.96zm2.508-11.18c.394.137.698.37.914.7.216.332.325.702.325 1.11 0 .414-.097.784-.292 1.108a1.82 1.82 0 0 1-.816.73c-.35.16-.994.24-1.933.24h-.705v-4.092h.557c.908 0 1.56.07 1.952.204m18.873 8.286l-8.74-10.066h-1.5v12.96h1.742v-9.982l8.664 9.982h1.596v-12.96h-1.763zm6.076 2.894h1.855v-12.96h-1.855zm16.55-2.894l-8.74-10.066H98.29v12.96h1.744v-9.982l8.665 9.982h1.595v-12.96h-1.763zm13.06-1.837h2.495v2.7l-.176.056c-1.033.34-1.92.51-2.662.51-1.527 0-2.777-.467-3.748-1.4-.972-.936-1.457-2.138-1.457-3.61 0-1.404.485-2.588 1.457-3.553.97-.965 2.164-1.447 3.58-1.447 1.523 0 3.057.448 4.603 1.344v-1.89c-1.003-.422-1.83-.71-2.487-.87a8.787 8.787 0 0 0-2.078-.235c-2.004 0-3.67.643-5 1.93-1.33 1.286-1.995 2.896-1.995 4.833 0 1.837.64 3.38 1.926 4.634 1.284 1.252 3 1.878 5.145 1.878 1.57 0 3.153-.346 4.75-1.04v-5.492h-4.35v1.653M51.363 20.026c1.134-.98 1.34-1.084 1.858-1.084.413 0 .827.515.827.98 0 .104 0 .26-.053.413 2.27 0 3.51.104 5.315.465 4.024.825 6.243 2.992 6.243 6.243 0 3.2-2.838 5.573-8.824 7.278-4.026 1.135-8.155 2.065-10.425 2.375 3.097.567 3.87.773 5.265 1.34 2.733 1.188 4.127 2.994 4.127 5.368 0 2.58-1.497 5.005-4.593 7.328-4.644 3.46-10.115 5.42-15.07 5.42-4.747 0-7.585-2.168-7.585-5.883 0-.776.05-1.29.257-2.168-.72.772-3.095 3.663-4.025 4.8-.93 1.29-1.652 1.856-2.166 1.856-.62 0-1.342-.62-1.342-1.136 0-.515.463-1.29 1.547-2.63 2.788-3.408 5.73-6.865 8.517-9.857 2.115-2.27 2.94-3.252 2.94-3.458 0-.103-.103-.31-.206-.517a.97.97 0 0 1-.206-.567c0-.618.724-.93 2.375-.93 5.314-5.57 9.39-9.803 12.23-12.692-5.936.67-10.942 1.856-13.985 3.404-.774.413-1.445.62-1.858.62-.464 0-1.033-.515-1.033-1.032 0-.825.723-1.393 3.096-2.374 4.336-1.806 9.908-2.89 16.463-3.303l.31-.257zm-7.586 11.3c-2.117 2.272-2.323 2.478-3.923 4.233 14.967-1.962 24.41-5.677 24.41-9.6 0-2.322-3.15-3.354-10.115-3.354-.775 0-.878 0-2.374.102-2.117 2.322-4.8 5.16-8 8.618m-10.37 11.406c-2.738 3.354-3.873 5.52-3.873 7.328 0 2.168 2.27 3.56 5.83 3.56 8.208 0 18.477-6.14 18.477-11.094 0-1.446-1.033-2.632-3.097-3.407-2.89-1.135-6.14-1.704-10.012-1.704-1.03 0-1.494.052-2.63.26-1.754 1.65-2.89 2.89-4.695 5.056M65.088 54.86a3.52 3.52 0 0 1-.723.05c-1.34 0-2.064-.722-2.064-2.115 0-1.548.672-3.56 2.014-6.14a316.254 316.254 0 0 1-5.006 3.663c-4.386 3.302-5.883 4.077-8.257 4.437h-.103c-.102.052-.205.052-.257.052-.207 0-.31-.103-.31-.31 0-.31.206-.515.517-.567 1.96-.31 3.457-1.084 6.552-3.354l8.05-5.935c1.55-2.476 3.406-4.953 6.194-7.998 6.552-7.224 11.972-11.714 14.087-11.714.724 0 1.136.464 1.136 1.238 0 1.548-1.547 3.922-5.006 7.638-3.714 4.025-5.572 5.625-12.746 11.043-1.392 1.033-1.806 1.55-3.252 4.13-1.237 2.22-1.96 3.818-1.96 4.437 0 .413.31.62.878.62.155 0 .258 0 .412-.052h.104c.207 0 .36.206.36.413 0 .31-.1.412-.514.465h-.104zm20.95-28.745c0-.207-.153-.413-.36-.413-.723 0-2.734 1.96-8.31 8.206-4.488 5.108-6.345 7.328-7.842 9.598 9.34-7.07 16.513-14.656 16.513-17.39"/><path d="M89.135 42.783c.67-.62.824-.722 1.135-.722.464 0 .826.26.826.723 0 .62 0 .62-2.065 3.15-.618.772-.618.772-1.34 1.597-.93 1.136-1.96 2.426-3.15 3.872-.825 1.032-1.185 1.652-1.185 2.012 0 .412.412.568 1.135.568.413 0 .516.103.516.413 0 .413-.31.515-1.703.515-.98 0-1.703-.62-1.703-1.496 0-.878.207-1.393 1.392-3.405-4.746 4.023-5.314 4.385-6.81 4.385-1.29 0-2.168-.877-2.168-2.22 0-.825.207-1.65.62-2.632-.98.724-1.138.826-2.117 1.6-3.355 2.53-4.695 3.252-6.812 3.612l-.258.053h-.102c-.207 0-.312-.104-.312-.31 0-.31.21-.516.518-.568 2.17-.206 5.522-2.426 12.9-8.772 2.685-2.27 6.35-4.078 8.363-4.078 1.236 0 1.908.57 2.062 1.91l.26-.207zm-6.864 2.632c-4.282 3.82-5.934 5.83-5.934 7.07 0 .414.26.67.62.67.825 0 2.993-1.547 6.193-4.385 3.198-2.89 4.695-4.697 4.695-5.83 0-.518-.26-.827-.774-.827-.877 0-2.013.774-4.8 3.302"/><path d="M100.594 43.867l-1.91 1.65c-8.98 7.536-10.89 8.826-13.674 9.24h-.105c-.155.05-.256.05-.256.05-.208 0-.312-.103-.312-.31 0-.31.207-.515.517-.567 2.32-.36 4.643-1.857 11.25-7.38l3.045-2.58c3.354-2.528 9.133-8.618 17.235-18.268.878-1.135 1.445-1.547 2.064-1.547.462 0 .826.36.826.876 0 1.343-.104 1.498-9.24 11.82-3.92 4.49-4.798 5.47-6.14 7.12 3.096-2.167 4.13-2.683 5.522-2.683 1.188 0 2.014.827 2.014 2.013 0 1.496-1.29 2.786-3.923 3.87-2.168.93-3.924 1.29-6.09 1.393 1.96 4.593 2.527 5.47 3.457 5.47.052 0 .154 0 .258-.05h.207c.154 0 .31.205.31.412 0 .412-.465.567-2.013.567-1.136 0-1.756-.464-2.427-1.702-.465-.827-.877-1.652-1.91-3.768-.824.93-1.188 1.29-2.477 2.89-1.6 1.96-2.218 2.58-2.63 2.58-.465 0-1.034-.67-1.034-1.238 0-.67.465-1.29 7.484-9.6.257-.308.516-.618.774-.98l-.826.723zm8.72-.67c0-.31-.31-.568-.72-.568-1.704 0-4.8 2.063-7.948 5.314 3.922-.36 8.67-2.942 8.67-4.747"/><path d="M120.098 54.86c-.516.102-1.55.154-2.272.154-2.168 0-3.3-.98-3.3-2.89 0-.465.05-.774.152-1.393-1.34.362-2.063.723-4.23 1.963-2.22 1.34-3.302 1.805-4.8 2.062h-.103c-.154.052-.258.052-.258.052-.207 0-.31-.103-.31-.31 0-.31.207-.515.517-.567 1.445-.258 2.477-.722 4.8-2.064 2.167-1.29 2.682-1.497 4.694-2.013 1.084-2.477 2.323-3.973 4.75-5.883 2.887-2.22 5.055-3.302 6.656-3.302 1.29 0 1.96.568 1.96 1.652 0 1.908-1.908 3.766-6.192 5.985-1.755.93-2.994 1.496-4.49 2.013-.207.62-.31 1.032-.31 1.703 0 1.497.775 2.013 2.89 1.962.517 0 .62.05.62.413 0 .31-.103.36-.62.465h-.154zm6.193-12.645c0-.36-.206-.62-.515-.62-1.91 0-6.45 4.49-7.742 7.69 4.284-2.115 8.258-5.52 8.258-7.07"/></svg>