<svg xmlns="http://www.w3.org/2000/svg" xmlns:xlink="http://www.w3.org/1999/xlink" viewBox="0 0 360.00001 260.00001" width="360" height="260"><defs><marker id="w" orient="auto" overflow="visible"><path d="M-5.231-2.42L1.324-.01-5.23 2.401c1.047-1.423 1.041-3.37 0-4.821z" fill="#333" fill-rule="evenodd" stroke="#333" stroke-width=".375" stroke-linejoin="round"/></marker><marker orient="auto" id="x" overflow="visible"><path d="M-5.231-2.42L1.324-.01-5.23 2.401c1.047-1.423 1.041-3.37 0-4.821z" fill="#333" fill-rule="evenodd" stroke="#333" stroke-width=".375" stroke-linejoin="round"/></marker><radialGradient xlink:href="#a" id="v" cx="787.846" cy="980.497" fx="787.846" fy="980.497" r="160.146" gradientTransform="matrix(1 0 0 .7051 -66.81 530.287)" gradientUnits="userSpaceOnUse"/><linearGradient xlink:href="#b" id="f" gradientUnits="userSpaceOnUse" x1="23.718" y1="37.066" x2="23.718" y2="49.629"/><linearGradient xlink:href="#a" id="u" gradientUnits="userSpaceOnUse" gradientTransform="matrix(.9659 .2588 0 1.0353 -242.05 -531.042)" x1="271.319" y1="477.777" x2="271.319" y2="478.347"/><radialGradient xlink:href="#b" id="y" gradientUnits="userSpaceOnUse" gradientTransform="matrix(1 0 0 .7051 -66.81 753)" cx="656.604" cy="935.373" fx="656.604" fy="935.373" r="160.146"/></defs><g transform="matrix(.1778 0 0 .1778 13.63 -139.805)"><path d="M262.546 1104.61c10.43 3.39 18 13.19 18 24.74 0 11.64-7.68 21.51-18.25 24.82.16-2.75.25-5.52.25-8.31v-39.71-.32zM-23.454 1145.86c0 2.79.09 5.56.25 8.31-10.56-3.31-18.25-13.18-18.25-24.82 0-11.55 7.57-21.35 18-24.74zM215.166 1122.15c-11.36-11.36-29.86-11.36-41.22 0a7.997 7.997 0 0 0 0 11.32c3.12 3.12 8.19 3.12 11.31 0 5.13-5.13 13.47-5.13 18.6 0a7.974 7.974 0 0 0 5.65 2.34c2.05 0 4.1-.78 5.66-2.34a7.997 7.997 0 0 0 0-11.32zm-101.29-35.85c39.49 19.01 84.09 28.38 132.67 27.86v31.7c0 70.03-56.97 127-127 127s-127-56.97-127-127v-52.22c30-4.94 51.37-19.71 64.91-44.91 11.52 10.51 30.16 24.93 56.42 37.57zm44.67 133.94a8.015 8.015 0 0 0 0-11.32 8.015 8.015 0 0 0-11.32 0c-15.26 15.27-40.1 15.27-55.36 0-3.13-3.12-8.19-3.12-11.31 0a7.997 7.997 0 0 0 0 11.32c10.75 10.75 24.87 16.12 38.99 16.12 14.12 0 28.24-5.37 39-16.12zm-93.39-86.77a8.015 8.015 0 0 0 0-11.32c-11.37-11.36-29.86-11.36-41.23 0a8.015 8.015 0 0 0 0 11.32c3.12 3.12 8.19 3.12 11.31 0 5.13-5.13 13.47-5.13 18.6 0a7.98 7.98 0 0 0 5.66 2.34c2.05 0 4.09-.78 5.66-2.34z" fill="#be8d72"/><path d="M-21.254 1170.94c9.1 51.23 45.57 93.1 93.7 109.94-23.15 9.96-66.96 23.16-115.2 8.67 14.27-24.35 16.74-64.83 14.93-120.06 2.12.65 4.32 1.14 6.57 1.45zM266.906 1169.49c-1.81 55.24.66 95.72 14.93 120.07-28.25 8.54-58.18 8.68-89.12.41a189.117 189.117 0 0 1-26.1-9.08c48.14-16.83 84.63-58.71 93.73-109.95 2.25-.31 4.44-.8 6.56-1.45zM258.356 981.42c14.16 27.58 14.58 57.58 12.26 109.13a41.368 41.368 0 0 0-8.07-2.43v-8.13c0-4.42-3.58-8-8-8s-8 3.58-8 8v18.17c-110.2 1.17-169.85-51.91-185.77-68.51a8.012 8.012 0 0 0-7.27-2.33 8.036 8.036 0 0 0-5.91 4.82c-11.62 28.28-31.93 43.07-63.92 46.56a7.994 7.994 0 0 0-7.13 7.95v1.47c-2.8.54-5.5 1.36-8.08 2.43-2.32-51.54-1.9-81.53 12.28-109.13.86-1.68 1.78-3.37 2.74-5 10.53-18.11 30.69-29.52 52.59-29.77h.11c2.43-.05 4.71-1.2 6.18-3.13 17.27-22.52 43.14-36.01 70.98-37 32.72-1.17 64.94 6.81 93.18 23.07 23.74 13.67 41.18 31.1 51.83 51.83z" fill="#464646"/><path d="M300.586 1288.29a8.023 8.023 0 0 1 1.84 7.25 8.036 8.036 0 0 1-4.95 5.6c-14.83 5.6-35.34 10.83-60.22 10.83-14.93 0-31.44-1.88-49.24-6.7-23.2-6.27-39.56-15.07-45.14-18.32a143.55 143.55 0 0 1-46.67 0c-5.58 3.25-21.94 12.05-45.13 18.32-13.35 3.61-30.36 6.69-49.51 6.69-18.44 0-38.86-2.85-59.96-10.82a8.001 8.001 0 0 1-4.94-5.6 7.99 7.99 0 0 1 1.83-7.25c18.74-20.75 19.54-73.63 17.32-128.35-8.16-7.66-13.27-18.54-13.27-30.59 0-10.58 3.94-20.26 10.43-27.65-2.73-55.8-4.18-93.11 13.54-127.59.99-1.93 2.04-3.86 3.14-5.74 12.73-21.88 36.39-36.03 62.39-37.58 20.15-24.52 49.35-39.14 80.73-40.26 35.72-1.28 70.89 7.44 101.73 25.19 26.46 15.23 46 34.88 58.08 58.39 17.7 34.46 16.25 71.78 13.53 127.58 6.48 7.39 10.43 17.07 10.43 27.66 0 12.05-5.11 22.93-13.28 30.6-2.21 54.71-1.42 107.59 17.32 128.34zm-20.04-158.94c0-11.55-7.57-21.35-18-24.74v41.25c0 2.79-.09 5.56-.25 8.31 10.57-3.31 18.25-13.18 18.25-24.82zm-9.93-38.8c2.32-51.55 1.9-81.55-12.26-109.13-10.65-20.73-28.09-38.16-51.83-51.83-28.24-16.26-60.46-24.24-93.18-23.07-27.84.99-53.71 14.48-70.98 37a7.974 7.974 0 0 1-6.18 3.13h-.11c-21.9.25-42.06 11.66-52.59 29.77-.96 1.63-1.88 3.32-2.74 5-14.18 27.6-14.6 57.59-12.28 109.13 2.58-1.07 5.28-1.89 8.08-2.43v-1.47c0-4.08 3.07-7.51 7.13-7.95 31.99-3.49 52.3-18.28 63.92-46.56a8.036 8.036 0 0 1 5.91-4.82c2.66-.5 5.39.37 7.27 2.33 15.92 16.6 75.57 69.68 185.77 68.51v-18.17c0-4.42 3.58-8 8-8s8 3.58 8 8v8.13c2.8.54 5.5 1.36 8.07 2.43zm11.22 199.01c-14.27-24.35-16.74-64.83-14.93-120.07-2.12.65-4.31 1.14-6.56 1.45-9.1 51.24-45.59 93.12-93.73 109.95 6.99 3.02 15.84 6.34 26.1 9.08 30.94 8.27 60.87 8.13 89.12-.41zm-35.29-143.7v-31.7c-48.58.52-93.18-8.85-132.67-27.86-26.26-12.64-44.9-27.06-56.42-37.57-13.54 25.2-34.91 39.97-64.91 44.91v52.22c0 70.03 56.97 127 127 127s127-56.97 127-127zm-174.1 135.02c-48.13-16.84-84.6-58.71-93.7-109.94-2.25-.31-4.45-.8-6.57-1.45 1.81 55.23-.66 95.71-14.93 120.06 48.24 14.49 92.05 1.29 115.2-8.67zm-95.65-126.71c-.16-2.75-.25-5.52-.25-8.31v-41.25c-10.43 3.39-18 13.19-18 24.74 0 11.64 7.69 21.51 18.25 24.82z" fill="#333"/><path d="M215.166 1122.15a7.997 7.997 0 0 1 0 11.32 7.98 7.98 0 0 1-5.66 2.34c-2.04 0-4.09-.78-5.65-2.34-5.13-5.13-13.47-5.13-18.6 0-3.12 3.12-8.19 3.12-11.31 0a7.997 7.997 0 0 1 0-11.32c11.36-11.36 29.86-11.36 41.22 0zM158.546 1208.92a8.015 8.015 0 0 1 0 11.32c-10.76 10.75-24.88 16.12-39 16.12-14.12 0-28.24-5.37-38.99-16.12a7.997 7.997 0 0 1 0-11.32c3.12-3.12 8.18-3.12 11.31 0 15.26 15.27 40.1 15.27 55.36 0a8.015 8.015 0 0 1 11.32 0zM65.156 1122.15a8.015 8.015 0 0 1 0 11.32 7.997 7.997 0 0 1-5.66 2.34c-2.05 0-4.1-.78-5.66-2.34-5.13-5.13-13.47-5.13-18.6 0-3.12 3.12-8.19 3.12-11.31 0a8.015 8.015 0 0 1 0-11.32c11.37-11.36 29.86-11.36 41.23 0z" fill="#333"/><g transform="translate(-1566.77 1083.286)"><rect transform="translate(80.341 -1166.197)" width="406.737" height="122.553" x="1641.68" y="1847.444" rx="28.122" ry="28.122" fill="#f5f5f5" stroke="#333" stroke-width="14.061"/><text style="line-height:1.25;text-align:center" x="1923.837" y="764.86" font-weight="400" font-size="59.993" font-family="sans-serif" letter-spacing="0" word-spacing="0" text-anchor="middle" fill="#333" stroke-width="5.624"><tspan x="1923.837" y="764.86" style="-inkscape-font-specification:'sans-serif Bold';text-align:center" font-weight="700">&quot;puppers&quot;</tspan></text></g><g transform="matrix(7.49916 0 0 7.49916 732.18 1784.264)" overflow="visible"><path d="M36.049 41.004H27.454a1.506 1.506 0 0 0-.735-.64v-8.689h-4.875v8.689a1.502 1.502 0 0 0-.735.64h-8.594v4.875h8.441a1.5 1.5 0 0 0 1.451 1.125h3.75a1.5 1.5 0 0 0 1.451-1.125h8.441z" opacity=".2"/><path d="M35.861 40.816H27.266a1.506 1.506 0 0 0-.735-.64v-8.689h-4.875v8.689a1.502 1.502 0 0 0-.735.64h-8.594v4.875h8.441a1.5 1.5 0 0 0 1.451 1.125h3.75a1.5 1.5 0 0 0 1.451-1.125h8.441z" opacity=".2"/><path d="M35.674 40.629H27.079a1.506 1.506 0 0 0-.735-.64V31.3h-4.875v8.689a1.502 1.502 0 0 0-.735.64H12.14v4.875h8.441a1.5 1.5 0 0 0 1.451 1.125h3.75a1.5 1.5 0 0 0 1.451-1.125h8.441z" opacity=".2"/><path fill="#616161" d="M11.952 40.441v4.875h23.534v-4.875h-.673z"/><linearGradient y2="44.645" x2="23.718" y1="41.114" x1="23.718" gradientUnits="userSpaceOnUse" id="c"><stop offset="0" stop-color="#cecedb"/><stop offset=".191" stop-color="#fff"/><stop offset=".483" stop-color="#cecedb"/><stop offset=".753" stop-color="#b3b3c6"/><stop offset=".994" stop-color="#828282"/></linearGradient><path fill="url(#c)" d="M12.624 41.114h22.189v3.53H12.624z"/><path fill="#616161" d="M21.281 43.959h4.875V31.112h-4.875v.367z"/><linearGradient gradientTransform="rotate(-90 -256.897 586)" y2="868.382" x2="291.568" y1="864.851" x1="291.568" gradientUnits="userSpaceOnUse" id="d"><stop offset="0" stop-color="#cecedb"/><stop offset=".191" stop-color="#fff"/><stop offset=".483" stop-color="#cecedb"/><stop offset=".753" stop-color="#b3b3c6"/><stop offset=".994" stop-color="#828282"/></linearGradient><path fill="url(#d)" d="M21.953 31.479h3.531v12.112h-3.531z"/><linearGradient y2="39.691" x2="23.719" y1="46.441" x1="23.719" gradientUnits="userSpaceOnUse" id="e"><stop offset="0" stop-color="#cf0000"/><stop offset=".994" stop-color="#ff6d00"/></linearGradient><path d="M27.094 44.941a1.5 1.5 0 0 1-1.5 1.5h-3.75a1.5 1.5 0 0 1-1.5-1.5v-3.75a1.5 1.5 0 0 1 1.5-1.5h3.75a1.5 1.5 0 0 1 1.5 1.5z" fill="url(#e)"/><linearGradient y2="49.629" x2="23.718" y1="37.066" x1="23.718" gradientUnits="userSpaceOnUse" id="b"><stop offset="0" stop-color="#fff030"/><stop offset=".994" stop-color="#ffae00"/></linearGradient><path d="M21.844 40.441a.75.75 0 0 0-.75.75v3.75c0 .414.336.75.75.75h3.75a.75.75 0 0 0 .75-.75v-3.75a.75.75 0 0 0-.75-.75z" fill="url(#f)"/><linearGradient y2="43.816" x2="23.718" y1="41.004" x1="23.718" gradientUnits="userSpaceOnUse" id="g"><stop offset="0" stop-color="#fff"/><stop offset=".497" stop-color="#ffe3a9"/><stop offset=".994" stop-color="#ffc957"/></linearGradient><path d="M21.844 41.004a.188.188 0 0 0-.188.188v3.75c0 .104.084.188.188.188h3.75a.188.188 0 0 0 .188-.188v-3.75a.188.188 0 0 0-.188-.188z" fill="url(#g)"/><path d="M25.247 1.276L12.139 9.865c-.004.004-.042.028-.042.028a1.052 1.052 0 0 1-.047.038c-.019.015-.019.011-.035.029l-.173.202c-.016.019-.011.016-.023.038l-.001.003-.042.076-.018.041a5.801 5.801 0 0 1-.032.085l-.013.041-.021.088-.009.05-.008.1-.002.029v22.793c0 .444.283.837.705.978l9.763 3.255c.321.106.674.05.944-.153l13.018-9.764c.258-.193.412-.502.412-.824V4.218a.88.88 0 0 0-.003-.046l-.005-.067-.01-.069-.006-.037c-.003-.016-.004-.015-.009-.031l-.023-.078-.021-.058a14.21 14.21 0 0 0-.033-.073l-.031-.059a5.068 5.068 0 0 0-.043-.067l-.04-.054-.039-.047-.017-.018-.038-.04a4.38 4.38 0 0 0-.107-.089l-.059-.039-.072-.042-.065-.03-.067-.027-.075-.023-.052-.014-9.671-2.079a1.03 1.03 0 0 0-.782.145zM11.692 10.534" opacity=".2"/><path d="M36.138 4.195a.722.722 0 0 0-.01-.094l-.004-.023-.006-.019a.868.868 0 0 0-.028-.089.342.342 0 0 0-.021-.043l-.021-.039-.025-.039-.025-.036-.031-.035a.327.327 0 0 0-.065-.062c-.012-.009-.023-.02-.035-.028a.826.826 0 0 0-.038-.025c-.014-.008-.026-.017-.041-.023a.43.43 0 0 0-.042-.019c-.015-.006-.028-.013-.043-.018-.016-.006-.032-.01-.05-.015l-.03-.009L25.95 1.5a.66.66 0 0 0-.497.092L12.345 10.18l-.009.007-.015.009c-.012.008-.023.019-.035.028l-.02.016a.715.715 0 0 0-.111.129l-.013.023c-.01.017-.02.034-.028.051l-.013.029c-.007.017-.014.033-.019.05l-.01.031-.012.053-.006.031c-.003.02-.004.041-.005.061l-.001.024v22.785c0 .282.181.533.448.622l9.763 3.254a.654.654 0 0 0 .6-.097l13.019-9.764a.658.658 0 0 0 .262-.524V4.218l-.002-.023z" opacity=".2"/><path d="M25.06 1.089L11.951 9.677a.76.76 0 0 1-.042.028 1.052 1.052 0 0 1-.047.038c-.019.015-.019.011-.035.029l-.173.202c-.016.019-.011.016-.023.038l-.001.003-.042.076-.018.041a5.801 5.801 0 0 1-.032.085l-.013.041-.021.088-.009.05-.008.1-.002.029v22.793c0 .444.283.837.705.978l9.763 3.255c.321.106.674.05.944-.153l13.018-9.764c.258-.193.412-.502.412-.824V4.03a.88.88 0 0 0-.003-.046l-.005-.067-.01-.069-.006-.037c-.002-.016-.003-.015-.008-.031l-.023-.078-.021-.058a14.21 14.21 0 0 0-.033-.073 32.874 32.874 0 0 0-.031-.059 5.068 5.068 0 0 0-.043-.067l-.04-.054-.039-.047-.017-.018-.038-.04a4.332 4.332 0 0 1-.05-.043l-.058-.046a58.616 58.616 0 0 0-.059-.039l-.072-.042-.065-.03-.067-.027-.075-.023-.052-.014L25.841.943a1.029 1.029 0 0 0-.781.146zM11.505 10.347" opacity=".2"/><path d="M35.95 4.007a.722.722 0 0 0-.01-.094l-.004-.023-.006-.019-.014-.048-.015-.041a.342.342 0 0 0-.021-.043l-.021-.039-.025-.039-.025-.036-.031-.035-.03-.032a.327.327 0 0 0-.035-.03c-.012-.009-.023-.02-.035-.028a.826.826 0 0 0-.12-.069c-.015-.006-.028-.013-.043-.018-.016-.006-.032-.01-.05-.015l-.03-.009-9.673-2.079a.66.66 0 0 0-.497.092L12.157 9.991l-.009.007-.015.009c-.012.008-.023.019-.035.028l-.02.016a.715.715 0 0 0-.111.129l-.013.023c-.01.017-.02.034-.028.051l-.013.029c-.007.017-.014.033-.019.05l-.01.031-.012.053-.006.031c-.003.02-.004.041-.005.061l-.001.024v22.785c0 .282.181.533.448.622l9.763 3.254a.654.654 0 0 0 .6-.097l13.019-9.764a.658.658 0 0 0 .262-.524V4.03l-.002-.023z" opacity=".2"/><linearGradient y2="8.672" x2="14.029" y1="26.916" x1="32.273" gradientUnits="userSpaceOnUse" id="h"><stop offset="0" stop-color="#585868"/><stop offset="1" stop-color="#494949"/></linearGradient><path d="M24.872.774L11.764 9.362c-.004.004-.042.029-.042.029a1.052 1.052 0 0 1-.047.038c-.019.015-.019.011-.035.029l-.173.202c-.016.019-.011.016-.023.038l-.002.002a8.386 8.386 0 0 1-.042.076l-.018.041-.032.086-.013.041-.021.088-.009.05-.007.1-.002.029v22.794c0 .444.283.837.705.978l9.763 3.255c.321.106.674.049.944-.153l13.018-9.764c.258-.194.412-.502.412-.824V3.715a.956.956 0 0 0-.003-.046l-.005-.067-.01-.069a.566.566 0 0 1-.006-.037c-.003-.016-.004-.016-.009-.031l-.023-.078-.021-.057a14.21 14.21 0 0 0-.033-.073l-.031-.059a16.742 16.742 0 0 1-.043-.067l-.04-.054-.039-.047a.298.298 0 0 0-.017-.018l-.038-.04a3.776 3.776 0 0 1-.05-.044 21.804 21.804 0 0 1-.058-.046 58.616 58.616 0 0 0-.059-.039l-.072-.042-.065-.03-.067-.027-.075-.022a5.196 5.196 0 0 1-.052-.014L25.653.629a1.025 1.025 0 0 0-.781.145zM11.317 10.032" fill="url(#h)"/><linearGradient y2="28.05" x2="33.408" y1="9.808" x1="15.165" gradientUnits="userSpaceOnUse" id="i"><stop offset="0" stop-color="#7d7d99"/><stop offset="1" stop-color="#494949"/></linearGradient><path d="M35.763 3.692a.34.34 0 0 0-.003-.045l-.007-.048-.004-.023-.006-.019a.868.868 0 0 0-.014-.048l-.015-.041a.342.342 0 0 0-.021-.043l-.021-.039-.025-.039-.025-.036-.031-.035-.03-.032-.035-.03-.035-.028-.038-.024c-.014-.008-.026-.017-.041-.024l-.01-.006-.032-.014-.043-.018-.05-.015-.03-.009L25.574.997a.655.655 0 0 0-.497.093L11.969 9.676l-.009.007-.015.009-.035.028-.02.016a.715.715 0 0 0-.111.129l-.013.023c-.01.017-.02.033-.028.051l-.013.029c-.007.017-.014.033-.019.05l-.01.031c-.005.017-.008.035-.012.053l-.006.031a.647.647 0 0 0-.005.062l-.001.024v22.785c0 .282.181.532.448.622l9.763 3.254a.655.655 0 0 0 .6-.098l13.019-9.763a.658.658 0 0 0 .262-.524V3.715c.001-.007 0-.015-.001-.023z" fill="url(#i)"/><radialGradient gradientUnits="userSpaceOnUse" gradientTransform="translate(19.5 19.5) scale(.1875)" fy="47.275" fx="105.203" r="139.088" cy="47.275" cx="105.203" id="j"><stop offset="0" stop-color="#fff"/><stop offset=".281" stop-color="#cecedb"/><stop offset=".64" stop-color="#bdbdcf"/><stop offset="1" stop-color="#9a9ab1"/></radialGradient><path fill="url(#j)" d="M22.091 13.479l13.018-9.764v22.781L22.091 36.26l-9.762-3.255V10.224z"/><linearGradient y2="3.363" x2="23.719" y1="13.222" x1="23.719" gradientUnits="userSpaceOnUse" id="k"><stop offset="0" stop-color="#cecedb"/><stop offset="1" stop-color="#eee"/></linearGradient><path fill="url(#k)" d="M35.109 3.715l-9.672-2.078-13.108 8.587 9.762 3.255z"/><linearGradient y2="38.241" x2="22.171" y1="16.692" x1="15.043" gradientUnits="userSpaceOnUse" id="l"><stop offset="0" stop-color="#fff"/><stop offset="1" stop-color="#cecedb"/></linearGradient><path fill="url(#l)" d="M12.329 10.224v22.781l9.762 3.255V13.479z"/><linearGradient y2="28.477" x2="17.783" y1="35.196" x1="16.636" gradientUnits="userSpaceOnUse" id="m"><stop offset="0" stop-color="#fff"/><stop offset="1" stop-color="#bdbdcf"/></linearGradient><path fill="url(#m)" d="M22.091 30.504L12.329 27.4v5.605l9.762 3.255z"/><linearGradient y2="16.355" x2="20.093" y1="16.355" x1="13.806" gradientUnits="userSpaceOnUse" id="n"><stop offset="0" stop-color="#7d7d99"/><stop offset="1" stop-color="#cecedb"/></linearGradient><path fill="url(#n)" d="M13.806 14.451v1.714l6.287 2.096v-1.715z"/><linearGradient y2="18.784" x2="20.093" y1="18.784" x1="13.806" gradientUnits="userSpaceOnUse" id="o"><stop offset="0" stop-color="#7d7d99"/><stop offset="1" stop-color="#cecedb"/></linearGradient><path fill="url(#o)" d="M13.806 16.879v1.715l6.287 2.095v-1.714z"/><linearGradient y2="22.933" x2="18.669" y1="18.896" x1="14.632" gradientUnits="userSpaceOnUse" id="p"><stop offset="0" stop-color="#7d7d99"/><stop offset="1" stop-color="#cecedb"/></linearGradient><path fill="url(#p)" d="M13.806 19.308v1.715l6.287 2.095v-1.714z"/><g><linearGradient gradientTransform="matrix(.9659 .2588 0 1.0353 -242.05 -531.042)" y2="477.593" x2="271.318" y1="478.916" x1="271.318" gradientUnits="userSpaceOnUse" id="q"><stop offset=".006" stop-color="#fff"/><stop offset="1" stop-color="#b6b6b6"/></linearGradient><path d="M19.776 33.411c-.453-.121-.808.097-.808.497s.355.809.808.93l.48.129c.454.122.809-.097.809-.497 0-.399-.355-.809-.809-.93z" fill="url(#q)"/><linearGradient gradientTransform="matrix(.9659 .2588 0 1.0353 -242.05 -531.042)" y2="477.716" x2="271.318" y1="478.856" x1="271.318" gradientUnits="userSpaceOnUse" id="r"><stop offset=".006" stop-color="#b6b6b6"/><stop offset=".367" stop-color="#9d9d9d"/><stop offset=".743" stop-color="#898989"/><stop offset="1" stop-color="#828282"/></linearGradient><path d="M19.776 33.603c-.347-.094-.63.065-.63.354s.283.599.63.691l.48.129c.348.093.63-.066.63-.354s-.282-.598-.63-.69z" fill="url(#r)"/><linearGradient gradientTransform="matrix(-.9659 -.2588 0 .7765 -840.352 -606.847)" y2="528.079" x2="-890.743" y1="529.262" x1="-890.743" gradientUnits="userSpaceOnUse" id="s"><stop offset=".006" stop-color="#9f6"/><stop offset=".236" stop-color="#68de56"/><stop offset=".478" stop-color="#3bc147"/><stop offset=".695" stop-color="#1bab3c"/><stop offset=".877" stop-color="#079e35"/><stop offset="1" stop-color="#093"/></linearGradient><path d="M20.828 34.406c0 .254-.256.391-.571.306l-.48-.128c-.315-.085-.57-.358-.57-.612 0-.253.255-.39.57-.306l.48.129c.315.085.571.358.571.611z" fill="url(#s)"/><linearGradient gradientTransform="matrix(.9659 .2588 0 1.0353 -242.05 -531.042)" y2="477.647" x2="271.339" y1="478.517" x1="271.307" gradientUnits="userSpaceOnUse" id="t"><stop offset=".006" stop-color="#3c3"/><stop offset=".358" stop-color="#1bb433"/><stop offset=".74" stop-color="#07a033"/><stop offset="1" stop-color="#093"/></linearGradient><path d="M19.776 33.794c-.245-.065-.451.038-.451.226s.207.402.451.469l.48.129c.245.065.452-.038.452-.227s-.207-.402-.452-.468z" fill="url(#t)"/><linearGradient gradientTransform="matrix(.9659 .2588 0 1.0353 -242.05 -531.042)" y2="478.347" x2="271.319" y1="477.777" x1="271.319" gradientUnits="userSpaceOnUse" id="a"><stop offset="0" stop-color="#fff"/><stop offset=".091" stop-color="#e8f7d6"/><stop offset=".227" stop-color="#c8ed9e"/><stop offset=".365" stop-color="#ade46d"/><stop offset=".5" stop-color="#97dc46"/><stop offset=".633" stop-color="#85d627"/><stop offset=".762" stop-color="#79d212"/><stop offset=".886" stop-color="#72d004"/><stop offset="1" stop-color="#6fcf00"/></linearGradient><path d="M19.758 33.713c-.202-.054-.358.037-.358.151 0 .114.156.289.358.343l.518.139c.205.056.358-.034.358-.15 0-.116-.153-.288-.358-.343z" fill="url(#u)"/></g><path fill="none" d="M0 48V0h48v48"/></g><g transform="translate(4.66 535.749)" stroke="#333"><rect ry="28.122" rx="28.122" y="288.56" x="401.41" height="752.693" width="1060.568" fill="#f5f5f5" stroke-width="14.061"/><path d="M402.57 398.235h1053.843" fill="none" stroke-width="14.061"/><path fill="#f5f5f5" stroke-width="14.061" d="M499.529 448.947h654.91v76.597h-654.91z"/><g transform="translate(22.497)" fill="#f5f5f5"><circle r="19.885" cy="477.589" cx="1196.534" stroke-width="14.061"/><path d="M1221.391 504.433l14.417 14.914" stroke-width="14.061"/><path d="M1208.466 492.005l12.925 12.428" stroke-width="8.437"/></g></g><text style="line-height:1.25;-inkscape-font-specification:'sans-serif, Normal';font-variant-ligatures:normal;font-variant-caps:normal;font-variant-numeric:normal;font-feature-settings:normal;text-align:start" x="589.41" y="896.477" font-weight="400" font-size="44.995" font-family="sans-serif" letter-spacing="0" word-spacing="0" fill="#333" stroke-width="5.624"><tspan x="589.41" y="896.477" style="-inkscape-font-specification:'sans-serif, Bold';font-variant-ligatures:normal;font-variant-caps:normal;font-variant-numeric:normal;font-feature-settings:normal;text-align:start" font-weight="700">https://www.youtube.com</tspan></text><path d="M80.923 982.453l-.254 29.678-25.176-14.564z" transform="matrix(.67283 0 0 -1.1006 414.673 1976.84)" fill="#333" stroke="#333" stroke-width="14.061"/><path transform="matrix(-.67283 0 0 -1.1006 552.177 1976.84)" d="M80.923 982.453l-.254 29.678-25.176-14.564z" fill="#333" stroke="#333" stroke-width="14.061"/><text style="line-height:1.25;-inkscape-font-specification:'sans-serif, Normal';font-variant-ligatures:normal;font-variant-caps:normal;font-variant-numeric:normal;font-feature-settings:normal;text-align:start" x="1376.625" y="899.886" font-weight="400" font-size="59.993" font-family="sans-serif" letter-spacing="0" word-spacing="0" fill="#333" stroke-width="5.624"><tspan x="1376.625" y="899.886" style="-inkscape-font-specification:'sans-serif, Normal';font-variant-ligatures:normal;font-variant-caps:normal;font-variant-numeric:normal;font-feature-settings:normal;text-align:start" dx="0">✖</tspan></text><rect width="306.232" height="196.853" x="502.298" y="1103.815" rx="28.122" ry="28.122" fill="url(#v)" stroke="#333" stroke-width="14.061"/><path opacity=".518" fill="#c3c3d3" d="M849.46 1125.942h447.268v45.694H849.46zM849.46 1187.972h330.562v40.07H849.46zM847.472 1340.514h447.268v45.694H847.472zM847.472 1402.544h330.562v40.07H847.472z"/><text style="line-height:1.25;-inkscape-font-specification:'sans-serif, Bold';font-variant-ligatures:normal;font-variant-caps:normal;font-variant-numeric:normal;font-feature-settings:normal;text-align:start" x="753.903" y="2217.025" font-weight="700" font-size="44.995" font-family="sans-serif" letter-spacing="0" word-spacing="0" fill="#333" stroke-width="5.624"><tspan x="753.903" y="2217.025" style="-inkscape-font-specification:'sans-serif, Bold';font-variant-ligatures:normal;font-variant-caps:normal;font-variant-numeric:normal;font-feature-settings:normal;text-align:start">youtube.com</tspan></text><path d="M726.933 1647.674c-75.156 58.011-76.557 107.784-14.638 236.015" fill="none" stroke="#333" stroke-width="14.061" marker-end="url(#w)"/><path d="M1067.08 1902.422c92.652-75.462 81.975-117.656 19.347-243.624" fill="none" stroke="#333" stroke-width="14.061" marker-end="url(#x)"/><text style="line-height:1.25;-inkscape-font-specification:'sans-serif, Normal';font-variant-ligatures:normal;font-variant-caps:normal;font-variant-numeric:normal;font-feature-settings:normal;text-align:start" x="530.293" y="1035.847" font-weight="400" font-size="44.995" font-family="sans-serif" letter-spacing="0" word-spacing="0" fill="#333" stroke-width="5.624"><tspan x="530.293" y="1035.847" style="-inkscape-font-specification:'sans-serif, Bold';font-variant-ligatures:normal;font-variant-caps:normal;font-variant-numeric:normal;font-feature-settings:normal;text-align:start" font-weight="700">puppers</tspan></text><rect ry="28.122" rx="28.122" y="1326.528" x="502.298" height="196.853" width="306.232" fill="url(#y)" stroke="#333" stroke-width="14.061"/><text style="line-height:1.25" x="190.496" y="1624.349" font-weight="400" font-size="224.975" font-family="sans-serif" letter-spacing="0" word-spacing="0" stroke-width="5.624"/><g><g transform="translate(-345.497 1272.322)"><rect width="715.164" height="408.594" x="1542.934" y="367.845" rx="28.122" ry="28.122" fill="#f5f5f5" stroke="#333" stroke-width="14.061"/><text style="line-height:1.25;text-align:center" x="1582.414" y="483.793" font-weight="400" font-size="59.993" font-family="sans-serif" letter-spacing="0" word-spacing="0" text-anchor="middle" fill="#333" stroke-width="5.624"><tspan x="1582.414" y="483.793" style="-inkscape-font-specification:'sans-serif Bold';text-align:start" font-weight="700" font-size="52.494" text-anchor="start">&lt;ol&gt;</tspan><tspan x="1582.414" y="558.785" style="-inkscape-font-specification:'sans-serif Bold';text-align:start" dx="0 0 0 0 0" font-weight="700" font-size="52.494" text-anchor="start">&lt;li&gt; &lt;video ...&gt;</tspan><tspan x="1582.414" y="633.777" style="-inkscape-font-specification:'sans-serif Bold';text-align:start" font-weight="700" font-size="52.494" text-anchor="start">&lt;li&gt; &lt;video ...&gt;</tspan><tspan x="1582.414" y="708.768" style="-inkscape-font-specification:'sans-serif Bold';text-align:start" font-weight="700" font-size="52.494" text-anchor="start">&lt;/ol&gt;</tspan></text></g></g></g></svg>